<svg xmlns="http://www.w3.org/2000/svg" viewBox="0 0 1000 500" role="img" aria-label="World map">
  <g fill="#8ac8c1" stroke="#36726d" stroke-width="0.8" stroke-linejoin="round">
    <path d="M334.52 472.33 L333.71 473.75 L332.89 475.00 L327.07 474.62 L320.87 474.78 L317.38 473.86 L317.38 473.75 L315.86 472.93 L322.12 473.04 L328.10 473.31 L330.17 472.17 L331.64 471.19 L334.52 472.33 Z"/>
    <path d="M57.76 470.83 L52.42 471.21 L48.78 470.23 L47.15 469.25 L47.04 469.08 L45.24 468.32 L45.24 468.32 L46.93 467.29 L52.10 467.72 L54.87 468.59 L56.99 469.57 L57.76 470.83 Z"/>
    <path d="M374.57 466.80 L378.00 467.99 L379.19 469.68 L379.52 470.88 L379.63 472.29 L375.33 473.17 L370.82 473.87 L365.59 474.53 L359.77 475.07 L353.19 474.91 L349.54 473.98 L350.03 472.84 L355.96 472.08 L358.36 471.15 L360.10 469.95 L361.35 468.92 L363.04 467.94 L364.83 466.80 L364.83 466.80 L366.25 466.80 L370.38 466.20 L374.57 466.80 Z"/>
    <path d="M163.30 454.17 L166.89 454.60 L170.21 454.11 L168.63 455.09 L166.02 455.80 L162.16 455.58 L159.38 454.60 L159.38 454.60 L159.98 453.68 L163.30 454.17 Z"/>
    <path d="M151.22 454.11 L155.47 455.20 L153.83 455.09 L150.24 454.82 L146.44 454.06 L146.44 454.06 L148.45 453.46 L151.22 454.11 Z"/>
    <path d="M225.05 449.81 L228.10 450.20 L231.14 449.87 L232.78 451.45 L230.60 451.23 L227.23 451.34 L223.80 451.23 L220.05 451.39 L217.22 450.85 L215.75 449.71 L215.75 449.71 L217.49 449.22 L221.03 449.60 L225.05 449.81 Z"/>
    <path d="M309.86 447.10 L310.18 448.35 L309.69 449.44 L308.93 450.47 L305.67 450.86 L302.57 451.40 L298.92 451.35 L300.28 450.26 L297.02 450.64 L293.92 451.02 L291.79 450.20 L291.63 449.06 L294.68 447.97 L294.68 447.97 L296.58 447.64 L299.79 447.75 L300.61 446.34 L300.77 445.30 L300.72 443.07 L302.29 441.77 L304.85 441.33 L306.32 442.36 L306.97 443.40 L308.17 444.65 L309.10 445.85 L309.86 447.10 Z"/>
    <path d="M337.18 428.20 L335.99 428.80 L333.92 428.36 L331.63 428.64 L329.73 429.29 L327.72 430.00 L326.36 430.81 L325.98 431.90 L326.14 432.94 L327.44 433.86 L325.54 434.52 L322.93 434.73 L321.41 435.66 L319.77 436.53 L318.03 437.73 L317.60 438.76 L318.58 439.90 L320.05 440.77 L322.33 441.43 L324.45 442.30 L325.59 443.39 L326.19 444.42 L327.01 445.51 L328.31 446.44 L329.13 447.47 L329.51 450.03 L330.33 451.06 L330.55 452.15 L331.42 453.24 L331.04 454.71 L329.51 455.85 L327.88 456.78 L324.18 457.16 L322.93 458.14 L321.24 459.06 L317.05 460.10 L313.35 460.53 L309.87 461.13 L306.12 461.73 L303.89 462.87 L299.43 462.98 L294.53 462.87 L290.12 463.09 L285.44 463.09 L286.31 464.18 L290.56 464.67 L293.66 465.43 L295.40 466.41 L292.30 467.28 L287.51 467.01 L283.54 467.72 L283.38 468.86 L283.27 469.95 L286.53 470.87 L287.13 471.91 L290.67 472.94 L296.54 473.38 L301.55 474.14 L305.52 475.01 L310.58 475.88 L317.49 476.32 L324.29 477.08 L329.02 477.90 L334.19 478.82 L336.91 480.13 L338.27 481.16 L341.64 480.18 L346.21 479.37 L351.06 478.50 L356.82 477.79 L361.77 477.03 L368.68 476.97 L375.48 477.35 L381.09 478.01 L382.88 476.81 L386.75 475.99 L393.76 475.94 L399.26 475.34 L404.48 474.74 L410.25 474.36 L416.40 473.87 L420.69 473.16 L418.74 472.18 L417.54 471.20 L417.54 470.17 L412.15 470.28 L406.44 470.71 L401.00 470.71 L400.24 469.68 L400.62 467.61 L401.87 467.01 L405.84 466.36 L410.52 465.70 L413.89 464.89 L417.27 464.07 L419.77 462.98 L423.58 462.49 L427.33 462.11 L429.24 461.89 L433.53 461.78 L437.62 461.40 L441.04 460.86 L444.42 460.21 L447.46 459.55 L451.33 458.68 L453.77 457.76 L456.38 456.94 L457.20 455.85 L454.26 455.20 L455.24 454.06 L457.09 453.18 L459.98 452.64 L463.02 451.99 L465.85 451.12 L468.03 450.03 L469.39 448.72 L471.40 447.96 L474.72 448.12 L476.08 449.05 L479.40 449.16 L479.51 448.12 L480.92 447.03 L483.91 447.31 L484.62 448.34 L487.94 448.50 L491.53 448.01 L495.01 447.69 L498.17 447.85 L499.36 448.99 L502.41 448.07 L505.24 447.58 L508.40 447.20 L511.50 446.82 L514.33 446.16 L517.43 445.73 L519.82 445.13 L521.51 444.15 L523.58 444.86 L526.46 444.48 L528.47 445.78 L530.05 446.76 L533.21 446.22 L534.46 445.13 L537.29 444.37 L540.93 444.53 L542.02 445.56 L544.30 444.53 L547.30 444.20 L550.56 444.09 L553.50 444.15 L556.60 444.48 L559.59 444.64 L560.90 445.56 L562.69 446.38 L565.74 445.89 L569.00 445.78 L572.16 445.78 L575.26 445.73 L578.03 445.35 L580.97 445.02 L583.42 444.26 L586.03 443.77 L588.86 443.50 L590.98 442.73 L592.51 441.21 L594.08 440.28 L596.97 440.72 L598.06 441.70 L600.45 442.35 L603.33 442.14 L605.29 443.12 L607.36 443.82 L610.19 443.17 L611.17 441.97 L613.67 441.48 L616.55 440.56 L619.27 440.18 L622.54 439.63 L624.71 439.03 L627.00 438.38 L629.18 437.78 L631.79 438.11 L634.29 437.13 L636.09 436.37 L638.70 436.42 L640.98 435.77 L641.53 434.79 L643.87 434.03 L646.15 433.48 L648.93 433.05 L651.48 432.83 L653.93 432.99 L656.54 433.26 L658.77 434.03 L659.04 435.22 L661.49 436.15 L663.18 436.91 L666.50 437.24 L668.35 438.00 L670.63 438.76 L673.30 438.92 L675.53 438.38 L677.92 437.24 L680.53 437.84 L683.25 438.16 L685.87 438.49 L688.59 438.71 L691.36 438.71 L693.65 441.59 L693.54 442.30 L693.21 443.55 L690.55 444.26 L688.37 445.29 L688.75 446.38 L691.85 446.33 L691.47 447.42 L690.06 448.45 L688.75 449.59 L690.87 450.46 L694.08 450.74 L697.29 450.25 L698.81 449.16 L699.74 448.12 L701.26 447.25 L703.00 446.44 L703.71 445.46 L705.18 444.09 L706.92 443.82 L710.08 443.71 L712.85 443.39 L715.68 442.95 L717.04 441.86 L717.86 440.83 L719.76 439.80 L722.48 439.09 L724.82 438.54 L726.34 437.62 L727.92 437.13 L729.93 436.69 L732.71 436.96 L735.21 436.69 L737.93 436.37 L740.98 436.53 L742.99 435.77 L744.41 433.92 L745.44 434.68 L746.75 435.98 L749.09 436.53 L751.75 436.75 L754.42 436.42 L757.25 436.64 L759.86 436.69 L761.60 436.42 L763.94 436.58 L766.06 437.18 L768.56 436.80 L771.55 436.80 L774.11 436.42 L776.99 436.80 L778.84 435.88 L780.26 434.95 L782.16 434.19 L785.65 432.12 L787.44 432.50 L789.56 433.26 L791.41 434.24 L794.95 435.93 L797.67 435.98 L800.23 435.98 L803.22 435.66 L806.21 435.28 L808.50 434.52 L810.40 433.70 L813.50 433.59 L815.57 432.99 L817.74 433.54 L819.16 434.41 L821.12 435.28 L824.16 435.17 L826.07 435.88 L829.39 436.58 L832.87 436.86 L835.75 436.64 L837.93 435.77 L839.78 434.90 L842.28 434.68 L844.78 435.06 L847.67 435.33 L850.28 434.90 L852.78 434.90 L855.23 435.17 L857.79 435.44 L860.29 434.95 L863.28 434.52 L866.11 434.41 L869.27 434.41 L871.82 434.13 L874.33 433.92 L875.09 432.56 L875.20 431.41 L876.94 432.17 L877.43 433.43 L878.35 434.57 L879.49 435.49 L881.83 435.98 L884.99 435.82 L888.63 435.77 L891.14 435.60 L894.78 435.60 L897.39 435.55 L901.04 435.66 L904.14 435.88 L906.10 436.75 L905.55 437.78 L907.35 438.60 L910.34 439.25 L913.44 439.96 L917.03 440.45 L920.79 440.88 L923.62 441.32 L926.77 441.37 L928.57 440.45 L931.02 441.21 L933.14 442.08 L935.59 442.73 L938.96 443.01 L942.17 443.33 L943.53 444.42 L946.69 445.07 L948.81 446.05 L951.91 446.49 L955.12 446.44 L958.11 446.60 L961.43 446.54 L964.75 446.76 L967.85 447.14 L970.73 447.80 L973.62 448.34 L975.57 449.16 L975.25 450.25 L973.78 451.23 L972.53 452.48 L971.55 453.46 L970.24 454.60 L966.60 455.04 L964.97 456.02 L961.37 456.61 L960.12 457.70 L958.22 458.74 L956.21 459.61 L955.06 460.75 L954.36 461.78 L954.08 463.04 L954.14 464.07 L955.72 465.16 L956.31 466.19 L957.62 467.17 L962.79 467.55 L963.88 468.75 L958.87 469.19 L954.63 469.79 L949.35 469.90 L947.01 471.47 L946.52 472.78 L945.32 473.81 L943.86 474.85 L947.56 475.77 L948.97 476.92 L951.36 477.95 L954.74 478.88 L958.60 479.75 L962.79 480.62 L969.15 481.49 L970.57 482.85 L978.57 483.45 L979.10 483.66 L981.18 484.48 L988.85 483.77 L995.21 484.65 L1000.00 485.31 L1000.00 500.00 L0.00 500.00 L0.00 485.31 L0.16 485.34 L2.61 483.72 L7.62 484.59 L7.94 484.49 L8.72 484.26 L9.66 483.98 L10.47 483.73 L10.88 483.61 L11.29 483.62 L11.58 483.66 L15.60 484.82 L19.12 483.66 L19.75 483.50 L27.91 483.01 L30.56 483.66 L31.86 483.99 L36.05 484.92 L43.94 485.63 L50.20 486.50 L60.91 487.15 L68.91 486.39 L80.72 486.93 L87.41 487.80 L94.75 486.99 L102.48 486.22 L103.08 484.92 L92.14 484.81 L83.16 484.16 L80.83 483.07 L73.37 482.47 L73.86 481.22 L74.90 480.07 L75.93 479.04 L75.38 477.90 L70.76 477.13 L68.64 476.15 L64.34 475.28 L71.09 475.45 L77.51 475.01 L81.53 475.94 L86.48 475.12 L91.05 474.09 L93.28 473.16 L92.30 472.02 L88.71 471.26 L84.63 470.44 L78.92 470.28 L73.92 469.90 L68.53 469.62 L66.73 468.59 L63.14 467.72 L60.97 466.74 L60.10 463.58 L61.46 463.85 L63.96 464.72 L68.53 464.45 L72.94 464.07 L75.22 465.27 L79.63 465.00 L83.33 464.40 L86.81 463.64 L89.97 462.71 L94.15 462.44 L94.05 461.40 L93.07 460.37 L93.88 459.39 L97.47 458.90 L99.11 459.83 L103.35 459.28 L106.56 458.57 L110.53 458.52 L114.28 458.25 L118.04 457.59 L121.03 457.00 L124.40 456.40 L126.58 456.56 L128.48 456.78 L132.62 456.40 L136.32 456.89 L140.13 456.83 L143.77 456.45 L147.53 456.72 L151.66 457.00 L155.52 456.89 L159.55 456.94 L163.68 457.00 L167.49 456.89 L170.32 456.07 L173.69 455.63 L177.18 456.23 L180.50 455.74 L183.49 454.76 L185.28 455.63 L186.26 456.61 L188.06 457.54 L190.94 456.72 L194.26 457.76 L198.01 458.08 L201.22 458.85 L205.14 458.68 L208.68 458.19 L212.87 458.30 L216.62 458.68 L220.43 459.17 L221.90 457.97 L220.10 457.05 L218.74 456.07 L215.15 455.85 L213.57 454.82 L212.98 453.78 L212.00 451.72 L214.12 452.10 L217.76 452.26 L221.35 452.10 L224.62 452.53 L227.45 453.35 L228.64 454.33 L232.40 454.49 L235.99 454.11 L239.80 453.57 L243.22 453.24 L246.05 453.89 L249.75 453.67 L252.15 451.55 L254.38 452.80 L257.59 453.29 L261.07 453.02 L263.35 454.11 L267.00 454.22 L270.37 454.55 L273.69 455.14 L275.87 454.11 L276.96 453.13 L279.73 454.22 L283.54 453.95 L286.37 454.55 L288.27 455.47 L291.97 455.20 L294.86 454.60 L297.68 453.89 L301.06 453.51 L304.97 453.18 L308.51 452.80 L311.23 452.21 L312.86 451.33 L313.52 450.14 L313.19 448.99 L312.32 447.91 L311.34 446.82 L310.47 445.73 L309.76 444.75 L309.60 443.66 L309.87 442.57 L311.18 441.54 L312.27 440.39 L312.70 439.31 L312.16 438.11 L311.83 437.02 L313.19 435.77 L314.71 434.95 L316.51 433.92 L318.41 433.05 L320.64 432.23 L321.73 431.03 L323.26 430.27 L325.00 429.56 L327.66 429.40 L329.40 428.53 L331.36 427.98 L333.65 427.66 L335.66 426.95 L337.24 426.08 L339.41 425.75 L341.05 426.46 L340.01 427.38 L337.18 428.20 Z"/>
    <path d="M311.81 399.58 L315.42 401.25 L319.31 401.94 L318.06 403.33 L315.42 403.47 L314.00 402.49 L313.08 403.61 L310.70 404.48 L307.69 404.16 L305.67 403.33 L302.76 402.93 L299.27 401.38 L296.43 399.88 L292.60 396.77 L294.89 397.35 L298.79 399.21 L302.48 400.21 L303.91 398.93 L304.81 397.03 L307.37 395.88 L309.35 396.21 L309.35 396.21 L310.42 397.50 L311.81 399.58 Z"/>
    <path d="M337.36 391.94 L339.58 393.19 L338.75 394.17 L335.00 395.00 L333.75 394.03 L331.39 395.28 L330.00 394.03 L333.33 392.36 L335.69 393.06 L337.36 391.94 Z"/>
    <path d="M695.22 388.08 L690.96 388.26 L690.89 386.78 L691.30 385.64 L691.49 385.07 L693.28 385.94 L695.90 386.29 L696.00 386.82 L695.22 388.08 Z"/>
    <path d="M903.88 363.31 L906.57 364.27 L908.08 363.89 L910.25 363.36 L911.91 363.54 L912.11 366.84 L911.16 367.80 L910.87 370.03 L909.90 369.27 L907.97 371.21 L907.40 371.06 L905.69 370.97 L903.98 368.59 L903.60 366.76 L901.99 364.34 L902.07 363.07 L903.88 363.31 Z"/>
    <path d="M980.61 363.66 L981.24 364.81 L983.22 363.69 L984.02 364.86 L984.02 366.03 L982.99 367.31 L981.17 369.36 L979.75 370.48 L980.78 371.81 L978.63 371.85 L976.26 372.90 L975.51 374.71 L973.94 377.52 L971.75 378.77 L970.37 379.56 L967.81 379.50 L966.01 378.58 L962.99 378.39 L962.53 377.37 L964.02 375.31 L967.51 372.57 L969.30 372.04 L971.30 370.99 L973.68 369.53 L975.35 368.09 L976.58 366.02 L977.64 365.32 L978.05 363.77 L980.00 362.48 L980.61 363.66 Z"/>
    <path d="M985.03 350.43 L987.05 353.36 L987.10 351.46 L988.36 352.22 L988.77 354.32 L991.01 355.23 L992.89 355.45 L994.47 354.39 L995.88 354.71 L995.21 357.17 L994.36 358.80 L992.24 358.74 L991.50 359.58 L991.76 360.78 L991.35 361.29 L990.30 362.79 L988.92 364.69 L986.78 365.80 L986.30 365.07 L985.14 364.67 L986.74 362.39 L985.83 360.86 L982.84 359.75 L982.92 358.74 L984.93 357.77 L985.40 355.63 L985.27 353.84 L984.14 351.98 L984.22 351.49 L982.89 350.34 L980.71 347.88 L979.54 345.91 L980.58 345.70 L982.09 347.24 L984.25 347.96 L985.03 350.43 Z"/>
    <path d="M964.22 311.56 L963.17 312.22 L961.64 311.47 L959.65 310.22 L957.86 308.75 L956.02 306.79 L955.64 305.85 L956.83 305.89 L958.39 306.83 L959.61 307.78 L960.50 308.56 L962.78 310.28 L964.22 311.56 Z"/>
    <path d="M995.48 298.17 L996.44 298.97 L995.98 300.42 L994.26 300.80 L992.73 300.46 L992.46 299.24 L993.53 298.28 L994.79 298.62 L995.48 298.17 Z"/>
    <path d="M998.23 296.67 L996.46 297.26 L996.10 296.22 L997.49 295.65 L998.37 295.50 L1000.00 294.63 L1000.00 295.99 L998.23 296.67 Z"/>
    <path d="M0.23 295.84 L0.00 295.99 L0.00 294.63 L0.57 294.50 L0.23 295.84 Z"/>
    <path d="M966.24 295.74 L965.32 296.11 L964.39 294.89 L964.49 294.14 L966.24 295.74 Z"/>
    <path d="M964.19 291.48 L964.64 293.72 L963.89 293.37 L963.31 293.52 L962.92 292.76 L962.86 290.63 L964.19 291.48 Z"/>
    <path d="M639.05 287.65 L639.49 291.00 L640.21 292.30 L639.94 293.63 L639.45 294.45 L638.50 292.82 L637.98 293.64 L638.51 295.70 L638.26 296.88 L637.50 297.52 L637.32 299.87 L636.23 303.11 L634.86 306.94 L633.14 312.20 L632.08 316.06 L630.82 319.28 L628.56 319.94 L626.14 321.12 L624.54 320.41 L622.33 319.41 L621.57 317.95 L621.38 315.48 L620.40 313.27 L620.15 311.27 L620.65 309.27 L621.93 308.79 L621.93 307.86 L623.26 305.76 L623.51 303.99 L622.87 302.67 L622.34 300.92 L622.12 298.36 L623.09 296.81 L623.46 295.05 L624.85 294.94 L626.40 294.37 L627.42 293.87 L628.65 293.83 L630.23 292.25 L632.51 290.54 L633.35 289.14 L632.97 287.96 L634.15 288.29 L635.68 286.36 L635.73 284.69 L636.65 283.45 L637.62 284.64 L638.36 285.82 L639.05 287.65 Z"/>
    <path d="M898.78 288.23 L899.78 290.41 L901.57 289.36 L902.49 290.54 L903.82 291.62 L903.53 292.86 L904.13 295.24 L904.55 296.62 L905.25 296.96 L906.00 299.34 L905.73 300.78 L906.63 302.66 L909.64 304.11 L911.60 305.43 L913.47 306.64 L913.10 307.32 L914.69 309.06 L915.77 312.06 L916.88 311.45 L918.01 312.66 L918.69 312.23 L919.17 315.17 L921.14 316.88 L922.43 317.94 L924.60 320.19 L925.38 322.42 L925.45 324.00 L925.26 325.72 L926.58 328.08 L926.42 330.54 L925.94 331.83 L925.19 334.31 L925.25 335.90 L924.70 337.89 L923.47 340.42 L921.41 341.78 L920.40 343.93 L919.47 345.31 L918.65 347.70 L917.58 349.09 L916.88 351.17 L916.52 353.08 L916.66 353.96 L915.07 354.92 L911.96 355.03 L909.39 356.16 L908.12 357.24 L906.44 358.43 L904.14 357.20 L902.44 356.72 L902.87 355.27 L901.35 355.79 L898.92 357.80 L896.52 357.05 L894.94 356.61 L893.35 356.41 L890.66 355.61 L888.87 353.90 L888.35 351.79 L887.71 350.38 L886.34 349.26 L883.67 348.92 L884.58 347.58 L883.91 345.51 L882.55 347.44 L880.08 347.95 L881.53 346.41 L881.96 344.81 L883.03 343.45 L882.81 341.39 L880.55 343.76 L878.81 344.71 L877.75 346.92 L875.58 345.77 L875.66 344.30 L873.93 342.29 L872.46 341.24 L872.98 340.60 L869.42 338.92 L867.47 338.84 L864.80 337.49 L859.82 337.75 L856.22 338.75 L853.06 339.67 L850.41 339.49 L847.47 340.91 L845.06 341.55 L844.52 343.01 L843.50 344.14 L841.14 344.21 L839.40 344.45 L836.94 343.95 L834.95 344.25 L833.04 344.38 L831.39 345.86 L830.58 345.73 L829.18 346.52 L827.85 347.40 L825.82 347.29 L823.96 347.29 L821.01 345.52 L819.52 344.99 L819.58 343.40 L820.96 343.02 L821.43 342.39 L821.33 341.39 L821.67 339.46 L821.36 337.81 L819.89 335.00 L819.44 333.42 L819.56 331.84 L818.45 330.03 L818.38 329.21 L817.15 328.11 L816.80 325.93 L815.22 323.73 L814.83 322.55 L816.05 323.75 L815.11 321.17 L816.49 321.98 L817.31 323.05 L817.27 321.63 L815.89 319.44 L815.63 318.57 L814.98 317.74 L815.28 316.13 L815.85 315.45 L816.23 314.06 L815.93 312.43 L817.08 310.43 L817.29 312.55 L818.47 310.64 L820.72 309.71 L822.08 308.52 L824.20 307.50 L825.46 307.29 L826.23 307.63 L828.42 306.60 L830.10 306.29 L830.52 305.68 L831.26 305.42 L832.79 305.49 L835.71 304.68 L837.22 303.44 L837.93 301.96 L839.56 300.55 L839.69 299.44 L839.76 297.93 L841.70 295.57 L842.87 297.97 L844.05 297.41 L843.06 296.10 L843.94 294.75 L845.16 295.36 L845.50 293.24 L847.02 291.88 L847.69 290.78 L849.08 290.31 L849.13 289.53 L850.35 289.85 L850.40 289.16 L851.62 288.76 L852.96 288.38 L855.01 289.66 L856.55 291.30 L858.29 291.32 L860.06 291.58 L859.47 290.06 L860.80 287.83 L862.05 287.10 L861.62 286.41 L862.83 284.82 L864.51 283.84 L865.93 284.17 L868.26 283.65 L868.21 282.23 L866.18 281.32 L867.66 280.91 L869.50 281.60 L870.97 282.74 L873.31 283.45 L874.11 283.17 L875.83 284.02 L877.45 283.23 L878.50 283.47 L879.15 282.94 L880.42 284.31 L879.68 285.80 L878.63 286.92 L877.67 287.01 L877.99 288.12 L877.18 289.51 L876.19 290.88 L876.39 291.66 L878.60 293.20 L880.74 294.09 L882.17 295.04 L884.18 296.69 L884.96 296.69 L886.41 297.40 L886.83 298.25 L889.49 299.20 L891.32 298.25 L891.86 296.76 L892.43 295.52 L892.77 294.00 L893.62 291.79 L893.23 290.45 L893.43 289.64 L893.11 288.05 L893.47 285.96 L894.01 285.39 L893.57 284.47 L894.25 282.99 L894.77 281.47 L894.84 280.67 L895.88 279.63 L896.66 280.99 L896.85 282.74 L897.54 283.07 L897.66 284.24 L898.67 285.65 L898.88 287.22 L898.78 288.23 Z"/>
    <path d="M950.33 279.12 L951.11 280.07 L949.17 280.06 L948.11 278.35 L949.77 279.02 L950.33 279.12 Z"/>
    <path d="M835.32 278.44 L834.15 278.50 L830.47 276.55 L833.06 276.00 L834.52 276.85 L835.49 277.69 L835.32 278.44 Z"/>
    <path d="M946.81 277.42 L945.73 277.49 L944.03 277.21 L943.44 276.78 L943.62 275.67 L945.45 276.11 L946.36 276.69 L946.81 277.42 Z"/>
    <path d="M949.11 276.67 L948.69 277.18 L946.63 274.77 L946.06 273.11 L947.00 273.11 L948.00 275.33 L949.11 276.67 Z"/>
    <path d="M845.66 278.17 L843.28 278.78 L842.94 278.44 L843.19 277.50 L844.39 275.81 L847.14 274.70 L847.46 274.05 L849.85 273.42 L851.79 273.33 L852.66 272.98 L853.71 273.33 L852.69 274.08 L849.79 275.29 L847.47 276.09 L845.66 278.17 Z"/>
    <path d="M827.50 272.49 L828.50 273.23 L830.22 273.00 L830.91 274.18 L827.70 274.74 L825.77 275.11 L824.28 275.09 L825.23 273.49 L826.76 273.47 L827.50 272.49 Z"/>
    <path d="M841.40 272.48 L840.99 274.03 L836.82 274.82 L833.12 274.47 L833.11 273.46 L835.32 272.88 L837.06 273.71 L838.91 273.50 L841.40 272.48 Z"/>
    <path d="M944.10 273.16 L944.22 273.72 L942.04 272.54 L940.52 271.54 L939.48 270.62 L939.89 270.33 L941.17 271.00 L943.44 272.28 L944.10 273.16 Z"/>
    <path d="M937.61 270.41 L937.05 270.57 L935.84 269.94 L934.70 268.79 L934.84 268.33 L936.50 269.50 L937.61 270.41 Z"/>
    <path d="M801.73 268.83 L807.05 269.10 L807.67 267.96 L812.82 269.29 L813.83 271.10 L818.00 271.60 L821.40 273.25 L818.23 274.31 L815.18 273.19 L812.67 273.27 L809.78 273.06 L807.18 272.56 L803.97 271.50 L801.93 271.23 L800.77 271.57 L795.71 270.43 L795.22 269.24 L792.68 269.03 L794.59 266.38 L797.96 266.54 L800.20 267.63 L801.35 267.84 L801.73 268.83 Z"/>
    <path d="M874.24 267.26 L872.81 269.15 L872.54 267.06 L873.03 266.06 L873.61 265.13 L874.24 265.94 L874.24 267.26 Z"/>
    <path d="M933.00 268.94 L932.22 269.22 L931.02 268.16 L929.80 266.39 L929.21 264.28 L929.59 264.01 L929.89 264.83 L930.73 265.46 L932.08 267.22 L933.39 268.17 L933.00 268.94 Z"/>
    <path d="M922.17 265.22 L920.72 265.45 L920.28 266.22 L918.76 266.90 L917.34 267.55 L915.86 267.55 L913.58 266.74 L912.00 265.96 L912.23 265.10 L914.72 265.51 L916.24 265.29 L916.66 263.96 L917.05 263.89 L917.32 265.37 L918.91 265.16 L919.69 264.20 L921.24 263.21 L920.94 261.58 L922.60 261.52 L923.16 261.98 L923.11 263.52 L922.17 265.22 Z"/>
    <path d="M853.47 259.61 L852.43 260.53 L850.51 260.02 L849.97 258.83 L852.78 258.69 L853.47 259.61 Z"/>
    <path d="M862.42 258.59 L863.43 260.72 L861.08 259.57 L858.76 259.34 L857.20 259.52 L855.27 259.43 L855.93 257.90 L859.36 257.78 L862.42 258.59 Z"/>
    <path d="M925.39 262.50 L924.52 263.24 L924.00 261.60 L923.35 260.53 L922.09 259.62 L920.51 258.43 L918.51 257.62 L919.28 256.94 L920.78 257.72 L921.72 258.33 L922.89 259.00 L924.00 260.17 L925.06 261.06 L925.39 262.50 Z"/>
    <path d="M872.62 253.20 L873.40 257.69 L876.27 259.35 L878.59 256.41 L881.78 254.73 L884.25 254.73 L886.62 255.70 L888.69 256.69 L891.67 257.22 L896.49 259.14 L901.62 260.73 L903.54 262.15 L905.08 263.55 L905.51 265.18 L910.13 266.90 L910.81 268.37 L908.25 268.67 L908.87 270.52 L911.35 272.34 L913.15 275.29 L914.74 275.20 L914.63 276.43 L916.77 276.90 L915.94 277.42 L918.89 278.59 L918.58 279.40 L916.75 279.59 L916.06 278.87 L913.68 278.56 L910.87 278.14 L908.71 276.37 L907.13 274.84 L905.69 272.41 L902.07 271.19 L899.71 271.99 L898.02 272.90 L898.37 274.95 L896.19 275.91 L894.63 275.44 L891.76 275.33 L889.29 273.05 L886.47 272.49 L885.78 273.28 L882.26 273.37 L883.44 271.11 L885.19 270.33 L884.47 267.31 L883.13 264.98 L877.75 262.63 L875.46 262.40 L871.29 259.83 L870.47 261.18 L869.40 261.42 L868.77 260.41 L868.76 259.20 L866.64 257.83 L869.63 256.83 L871.61 256.89 L871.38 256.15 L867.31 256.15 L866.21 254.49 L863.73 253.98 L862.55 252.60 L866.30 251.93 L867.72 251.03 L872.18 252.17 L872.62 253.20 Z"/>
    <path d="M847.89 246.06 L845.66 248.81 L843.57 249.35 L840.90 248.80 L836.27 248.94 L833.84 249.34 L833.45 251.44 L835.93 253.91 L837.43 252.66 L842.61 251.71 L842.38 252.99 L841.17 252.59 L839.97 254.21 L837.52 255.29 L840.15 258.85 L839.64 259.80 L842.14 263.01 L842.12 264.84 L840.63 265.65 L839.55 264.67 L840.89 262.40 L838.16 263.48 L837.47 262.71 L837.83 261.63 L835.83 260.01 L836.03 257.30 L834.18 258.14 L834.42 261.38 L834.53 265.36 L832.77 265.76 L831.57 264.94 L832.37 262.39 L831.94 259.71 L830.77 259.69 L829.91 257.78 L831.06 255.96 L831.45 253.76 L832.85 249.57 L833.43 248.43 L835.79 246.36 L837.96 247.18 L841.47 247.57 L844.66 247.45 L847.41 245.44 L847.89 246.06 Z"/>
    <path d="M857.47 246.85 L857.32 249.28 L855.89 249.01 L855.47 250.70 L856.61 252.17 L855.83 252.50 L854.71 250.74 L853.89 247.19 L854.45 244.97 L855.37 243.96 L855.57 245.48 L857.21 245.72 L857.47 246.85 Z"/>
    <path d="M793.94 266.26 L790.86 266.31 L788.52 263.99 L784.96 261.72 L783.77 260.04 L781.66 257.78 L780.28 255.70 L778.17 251.81 L775.73 249.49 L774.92 247.10 L773.89 244.93 L771.39 243.19 L769.94 240.81 L767.84 239.25 L764.95 236.19 L764.70 234.78 L766.49 234.89 L770.79 235.43 L773.25 238.14 L775.40 240.03 L776.93 241.18 L779.56 244.17 L782.38 244.21 L784.72 246.11 L786.32 248.44 L788.44 249.71 L787.33 251.98 L788.92 252.94 L789.92 253.01 L790.39 254.95 L791.36 256.50 L793.39 256.75 L794.75 258.50 L794.05 261.96 L793.94 266.26 Z"/>
    <path d="M827.43 244.92 L830.55 247.49 L827.26 247.82 L826.33 249.72 L826.45 252.23 L823.78 254.13 L823.70 256.90 L822.63 261.15 L822.22 260.16 L819.07 261.41 L817.97 259.71 L815.99 259.55 L814.60 258.66 L811.30 259.66 L810.29 258.32 L808.47 258.47 L806.18 258.15 L805.75 254.42 L804.37 253.65 L803.03 251.28 L802.65 248.85 L802.97 246.27 L804.62 244.43 L806.66 245.38 L808.80 244.86 L809.36 242.51 L810.55 241.98 L813.88 241.38 L815.87 239.18 L817.23 237.43 L818.33 236.39 L820.70 234.87 L822.84 232.94 L824.24 230.76 L825.36 230.76 L826.79 232.16 L826.91 233.37 L828.74 234.14 L831.06 234.98 L830.86 236.07 L829.00 236.20 L829.50 237.56 L827.45 238.51 L825.87 241.02 L827.91 243.65 L827.43 244.92 Z"/>
    <path d="M851.05 226.63 L851.33 228.47 L851.49 230.03 L850.55 232.57 L849.53 229.74 L848.23 231.15 L849.12 233.20 L848.32 234.50 L845.05 232.89 L844.27 230.87 L845.12 229.55 L843.36 228.24 L842.49 229.39 L841.18 229.29 L839.13 230.83 L838.67 230.02 L839.76 227.68 L841.51 226.90 L843.02 225.85 L844.00 227.11 L846.12 226.35 L846.57 225.11 L848.53 225.04 L848.37 222.89 L850.62 224.21 L850.85 225.60 L851.05 226.63 Z"/>
    <path d="M725.61 232.79 L723.19 233.42 L721.87 231.21 L721.38 227.22 L722.63 222.71 L724.55 224.25 L725.85 226.21 L727.19 229.10 L726.77 232.00 L725.61 232.79 Z"/>
    <path d="M330.74 221.92 L328.42 222.22 L327.92 221.97 L328.72 221.21 L328.67 220.11 L330.26 219.75 L330.85 219.85 L330.74 221.92 Z"/>
    <path d="M844.40 221.45 L843.40 222.36 L842.53 224.12 L841.66 224.94 L839.94 223.02 L840.52 222.27 L841.21 221.50 L841.52 219.77 L843.05 219.61 L842.60 221.48 L844.66 218.80 L844.40 221.45 Z"/>
    <path d="M829.18 224.12 L825.48 226.76 L826.85 224.81 L828.85 223.10 L830.52 221.18 L831.98 218.42 L832.47 220.68 L830.64 222.21 L829.18 224.12 Z"/>
    <path d="M838.57 216.97 L840.23 217.83 L842.00 217.82 L841.95 218.98 L840.66 220.16 L838.90 221.00 L838.80 219.71 L839.00 218.29 L838.57 216.97 Z"/>
    <path d="M848.62 216.21 L849.40 219.32 L847.26 218.58 L847.31 219.51 L847.99 221.23 L846.67 221.85 L846.56 219.89 L845.72 219.75 L845.28 218.07 L846.92 218.29 L846.88 217.24 L845.19 215.12 L847.85 215.18 L848.62 216.21 Z"/>
    <path d="M837.58 213.70 L836.84 216.10 L835.65 214.71 L834.23 212.59 L836.61 212.70 L837.58 213.70 Z"/>
    <path d="M837.00 198.60 L838.72 199.39 L839.57 198.67 L839.82 199.38 L839.37 200.53 L840.32 202.52 L839.59 204.83 L837.95 205.75 L837.51 207.99 L838.14 210.20 L839.61 210.50 L840.84 210.18 L844.31 211.72 L844.04 213.23 L844.95 213.90 L844.66 215.18 L842.49 213.81 L841.47 212.35 L840.75 213.37 L838.99 211.71 L836.46 212.12 L835.08 211.51 L835.22 210.36 L836.09 209.65 L835.26 209.01 L834.90 210.01 L833.53 208.41 L833.11 207.20 L833.01 204.55 L834.13 205.46 L834.42 201.11 L835.32 198.60 L837.00 198.60 Z"/>
    <path d="M317.80 199.37 L317.09 200.07 L315.00 200.05 L313.38 200.15 L313.22 198.96 L313.61 198.55 L315.88 198.57 L317.30 198.81 L317.80 199.37 Z"/>
    <path d="M286.38 200.37 L285.54 200.83 L283.98 200.38 L282.40 199.37 L282.73 198.74 L283.90 198.54 L284.53 198.64 L286.40 198.89 L287.87 199.55 L288.33 200.31 L286.38 200.37 Z"/>
    <path d="M298.39 194.80 L300.80 195.24 L301.15 194.76 L303.31 194.78 L304.96 195.49 L305.69 195.42 L306.20 196.41 L307.72 196.35 L307.63 197.18 L308.86 197.28 L310.23 198.30 L309.20 199.43 L307.88 198.83 L306.60 198.94 L305.69 198.81 L305.19 199.32 L304.12 199.49 L303.70 198.81 L302.78 199.21 L301.67 201.12 L300.95 200.67 L300.81 199.88 L298.97 199.40 L297.65 199.60 L295.96 199.39 L294.66 199.91 L293.17 199.05 L293.42 198.15 L295.97 198.54 L298.07 198.76 L299.07 198.14 L297.80 196.94 L297.82 195.88 L296.07 195.45 L296.70 194.68 L298.39 194.80 Z"/>
    <path d="M806.50 198.12 L804.10 199.45 L801.82 198.59 L801.74 196.20 L803.11 194.94 L806.14 194.16 L807.74 194.23 L808.36 195.29 L807.14 196.51 L806.50 198.12 Z"/>
    <path d="M67.94 196.99 L67.53 197.46 L66.84 197.06 L66.92 196.28 L66.46 195.27 L66.60 194.96 L67.08 194.51 L66.89 193.96 L67.05 193.70 L67.26 193.75 L68.33 194.22 L68.82 194.46 L69.27 194.84 L69.98 195.81 L69.91 195.96 L68.83 196.56 L67.94 196.99 Z"/>
    <path d="M66.45 192.66 L65.52 192.85 L65.04 192.27 L64.72 192.04 L64.69 191.87 L64.97 191.63 L65.95 191.90 L66.68 192.32 L66.45 192.66 Z"/>
    <path d="M64.56 191.18 L64.47 191.48 L62.99 191.40 L63.19 191.06 L64.56 191.18 Z"/>
    <path d="M62.08 190.77 L61.92 190.93 L61.73 190.90 L60.76 190.80 L60.41 190.17 L60.30 190.06 L61.04 189.68 L61.27 189.85 L62.08 190.77 Z"/>
    <path d="M57.37 188.94 L57.05 189.21 L56.11 188.71 L56.25 188.50 L56.68 188.23 L57.32 188.29 L57.37 188.94 Z"/>
    <path d="M278.67 186.76 L279.77 187.78 L282.37 187.47 L283.35 188.12 L285.70 189.84 L287.43 191.09 L288.35 191.05 L290.00 191.62 L289.80 192.40 L291.85 192.52 L293.95 193.65 L293.62 194.30 L291.77 194.66 L289.90 194.80 L287.99 194.58 L284.01 194.85 L285.87 193.30 L284.74 192.57 L282.95 192.39 L281.99 191.59 L281.33 190.01 L279.76 190.11 L277.17 189.37 L276.34 188.79 L272.72 188.36 L271.75 187.81 L272.79 187.12 L270.07 186.98 L268.07 188.42 L266.92 188.46 L266.52 189.14 L265.15 189.44 L263.96 189.18 L265.42 188.32 L266.03 187.32 L267.28 186.70 L268.70 186.16 L270.80 185.89 L271.48 185.59 L273.88 185.79 L276.06 185.82 L278.67 186.76 Z"/>
    <path d="M284.63 184.00 L283.94 184.14 L283.24 182.54 L282.20 181.73 L282.80 179.97 L283.64 180.08 L284.61 182.39 L284.63 184.00 Z"/>
    <path d="M836.60 186.69 L835.41 188.97 L833.94 186.63 L833.63 184.57 L835.26 181.84 L837.49 179.73 L838.75 180.56 L838.27 182.24 L836.60 186.69 Z"/>
    <path d="M283.83 176.17 L280.81 176.61 L280.61 175.58 L281.92 175.36 L283.75 175.44 L283.83 176.17 Z"/>
    <path d="M286.11 176.14 L285.63 178.11 L285.12 177.76 L285.17 176.31 L283.92 175.21 L283.92 174.89 L286.11 176.14 Z"/>
    <path d="M874.00 155.14 L874.35 156.09 L872.79 157.77 L871.65 156.88 L870.22 157.53 L869.49 159.15 L867.68 158.36 L867.70 157.05 L869.23 155.39 L870.81 155.71 L871.96 154.54 L874.00 155.14 Z"/>
    <path d="M596.05 150.91 L594.17 152.10 L594.37 152.62 L594.46 152.84 L591.61 153.97 L590.25 153.61 L589.60 152.49 L590.92 152.39 L591.12 152.37 L591.52 151.70 L593.52 151.74 L596.05 150.91 Z"/>
    <path d="M565.83 150.82 L567.35 151.76 L569.51 151.60 L571.58 151.79 L571.51 152.28 L573.03 151.94 L572.68 152.76 L568.68 153.00 L568.71 152.54 L565.32 152.00 L565.83 150.82 Z"/>
    <path d="M543.11 143.80 L542.11 145.99 L542.53 146.85 L541.94 148.28 L539.82 147.23 L538.41 146.93 L534.53 145.52 L534.92 144.09 L538.17 144.35 L541.00 144.04 L543.11 143.80 Z"/>
    <path d="M525.58 135.53 L527.25 137.50 L526.86 141.17 L525.60 141.00 L524.46 141.93 L523.41 141.19 L523.30 137.84 L522.67 136.25 L524.19 136.39 L525.58 135.53 Z"/>
    <path d="M891.60 146.83 L890.55 149.04 L891.04 150.44 L889.59 152.39 L886.04 153.70 L881.16 153.87 L877.20 157.04 L875.34 155.97 L875.22 153.90 L870.39 154.51 L867.10 155.82 L863.85 155.87 L866.67 157.92 L864.81 162.64 L863.02 163.81 L861.67 162.73 L862.35 160.22 L860.60 159.42 L859.47 157.51 L862.09 156.66 L863.55 154.91 L866.35 153.47 L868.38 151.57 L873.91 150.75 L876.88 151.31 L879.79 146.38 L881.64 147.70 L885.72 144.92 L887.30 143.84 L889.04 140.45 L888.56 137.32 L889.74 135.57 L892.69 135.06 L894.21 138.91 L894.12 141.16 L891.55 143.96 L891.60 146.83 Z"/>
    <path d="M526.56 132.91 L525.64 135.06 L524.38 134.49 L523.73 132.62 L524.29 131.59 L526.08 130.53 L526.56 132.91 Z"/>
    <path d="M899.75 127.29 L901.70 127.89 L903.67 126.71 L904.29 129.83 L900.17 130.59 L897.73 133.35 L893.37 131.45 L891.85 134.49 L888.76 134.53 L888.38 131.77 L889.76 129.63 L892.72 129.48 L893.53 125.63 L894.35 123.47 L897.62 126.36 L899.75 127.29 Z"/>
    <path d="M323.15 120.69 L325.17 121.07 L327.74 120.99 L326.38 122.13 L325.35 122.31 L321.83 121.13 L321.13 120.20 L322.18 119.34 L323.15 120.69 Z"/>
    <path d="M328.32 113.60 L326.96 113.65 L323.36 112.78 L320.78 111.46 L321.74 111.23 L325.39 111.93 L328.23 113.09 L328.32 113.60 Z"/>
    <path d="M156.92 115.25 L155.52 115.64 L150.96 114.37 L150.13 113.39 L147.64 112.42 L147.14 111.63 L144.28 111.13 L143.21 109.61 L143.45 108.97 L146.37 109.58 L148.07 110.00 L150.68 110.29 L151.62 111.25 L153.00 112.57 L155.77 113.72 L156.92 115.25 Z"/>
    <path d="M344.07 109.20 L342.23 111.63 L344.05 110.69 L345.91 111.29 L344.94 112.26 L347.40 113.02 L348.68 112.34 L351.45 113.20 L350.59 115.23 L352.54 114.76 L352.89 116.23 L353.76 117.96 L352.59 120.40 L351.33 120.50 L349.50 119.98 L350.11 117.71 L349.33 117.35 L346.11 119.76 L344.45 119.67 L346.41 118.36 L343.75 117.69 L340.76 117.85 L335.37 117.77 L334.95 116.95 L336.68 115.97 L335.47 115.21 L337.80 113.54 L340.67 109.12 L342.39 107.53 L344.80 106.58 L346.09 106.70 L345.55 107.45 L344.07 109.20 Z"/>
    <path d="M131.36 99.89 L131.36 99.89 L131.36 99.89 L131.36 99.89 L134.03 99.67 L133.20 102.82 L135.61 105.05 L134.51 105.05 L132.83 103.78 L131.81 102.50 L130.40 101.63 L129.89 100.41 L130.06 99.53 L131.36 99.89 Z"/>
    <path d="M899.02 109.03 L901.82 113.95 L897.71 113.04 L896.00 117.05 L898.70 119.90 L898.63 121.84 L896.52 120.16 L894.70 122.31 L894.19 119.98 L894.50 117.28 L894.18 114.28 L894.82 112.18 L894.94 108.47 L893.32 105.73 L893.56 101.94 L896.13 100.66 L895.03 99.37 L896.26 98.98 L896.99 100.82 L897.95 103.50 L897.88 106.23 L899.02 109.03 Z"/>
    <path d="M481.14 104.83 L476.22 106.47 L472.29 106.05 L474.54 103.15 L473.09 100.33 L476.87 98.15 L478.97 96.86 L481.29 96.74 L484.27 98.46 L482.78 100.37 L483.24 102.35 L481.14 104.83 Z"/>
    <path d="M535.25 95.53 L533.58 97.78 L530.68 96.21 L530.29 95.06 L534.36 94.13 L535.25 95.53 Z"/>
    <path d="M74.98 91.34 L72.21 92.40 L70.79 91.69 L70.36 90.39 L72.88 89.40 L74.36 88.98 L76.21 89.16 L77.39 90.02 L74.98 91.34 Z"/>
    <path d="M491.65 87.13 L488.68 90.13 L491.51 89.75 L494.56 89.76 L493.83 92.03 L491.34 94.52 L494.21 94.69 L496.90 98.26 L498.80 98.71 L500.51 101.87 L501.31 102.97 L504.67 103.50 L504.33 105.28 L502.92 106.09 L504.03 107.53 L501.53 108.98 L497.81 108.96 L493.08 109.72 L491.79 109.18 L489.95 110.48 L487.38 110.16 L485.43 111.22 L483.95 110.67 L488.03 107.75 L490.51 107.15 L486.15 106.68 L485.37 105.58 L488.27 104.72 L486.75 103.22 L487.28 101.40 L491.41 101.65 L491.82 100.04 L489.92 98.29 L486.54 97.80 L485.88 97.05 L486.89 95.81 L485.98 95.04 L484.48 96.36 L484.32 93.68 L482.92 92.26 L483.93 89.39 L486.08 87.14 L488.30 87.36 L491.65 87.13 Z"/>
    <path d="M40.06 83.58 L38.35 84.02 L36.53 83.50 L34.85 82.74 L37.59 82.27 L39.79 82.52 L40.06 83.58 Z"/>
    <path d="M279.82 77.34 L278.73 78.80 L277.50 78.56 L276.77 77.73 L276.90 77.54 L277.97 76.71 L279.11 76.77 L279.82 77.34 Z"/>
    <path d="M272.50 75.80 L269.25 77.34 L267.29 77.27 L266.68 76.52 L268.75 75.24 L272.56 75.27 L272.50 75.80 Z"/>
    <path d="M22.97 72.83 L24.68 73.36 L26.41 73.07 L28.66 73.80 L31.42 74.17 L31.19 74.48 L29.08 75.06 L26.97 74.46 L25.91 73.96 L23.46 74.12 L22.80 73.87 L22.97 72.83 Z"/>
    <path d="M263.44 67.62 L263.96 68.84 L265.38 68.41 L266.99 69.14 L270.03 70.09 L273.22 70.96 L273.46 72.28 L275.51 72.06 L277.49 72.98 L275.02 73.86 L270.70 73.19 L269.14 71.94 L266.39 73.42 L262.43 74.85 L261.48 73.23 L257.72 73.50 L260.13 72.12 L260.49 69.94 L261.43 67.39 L263.44 67.62 Z"/>
    <path d="M459.70 65.40 L459.06 67.20 L462.20 69.09 L458.58 71.21 L450.57 73.11 L448.18 73.62 L444.52 73.21 L436.77 72.33 L439.50 71.11 L433.46 69.75 L438.38 69.21 L438.26 68.39 L432.43 67.75 L434.30 65.94 L438.51 65.53 L442.84 67.41 L447.06 65.90 L450.56 66.68 L455.09 65.20 L459.70 65.40 Z"/>
    <path d="M289.26 63.48 L286.15 63.61 L285.45 62.26 L286.63 60.70 L289.18 60.31 L291.35 61.08 L291.38 62.27 L291.07 62.65 L289.26 63.48 Z"/>
    <path d="M13.85 65.04 L15.72 65.73 L15.08 63.72 L22.62 64.13 L28.06 66.73 L25.30 67.94 L20.75 68.23 L20.68 70.94 L19.57 71.52 L16.97 71.44 L14.85 70.47 L11.16 69.66 L10.54 68.45 L7.71 68.00 L4.56 68.36 L3.05 67.39 L3.65 66.36 L0.32 67.02 L1.58 68.32 L0.00 69.50 L0.00 58.43 L6.81 60.56 L14.09 63.32 L13.85 65.04 Z"/>
    <path d="M234.31 58.03 L232.58 59.01 L228.84 58.17 L226.58 58.47 L222.78 57.22 L225.23 56.36 L227.17 55.16 L230.12 55.94 L231.78 56.44 L232.62 56.97 L234.31 58.03 Z"/>
    <path d="M1000.00 53.24 L996.95 53.39 L996.46 52.50 L1000.00 51.35 L1000.00 53.24 Z"/>
    <path d="M3.63 53.07 L0.00 53.24 L0.00 51.35 L0.36 51.23 L2.71 51.23 L6.73 52.03 L6.49 52.41 L3.63 53.07 Z"/>
    <path d="M248.48 56.95 L248.47 59.79 L252.18 57.61 L255.50 59.40 L254.67 61.46 L257.36 63.34 L260.26 61.33 L262.29 58.93 L262.44 55.88 L266.39 56.10 L270.49 56.50 L274.22 57.88 L274.39 59.26 L272.32 60.74 L274.28 62.23 L273.93 63.58 L268.49 65.52 L264.62 65.95 L261.75 65.12 L260.92 66.51 L258.25 68.85 L257.44 70.07 L254.21 71.95 L250.24 72.13 L248.04 73.30 L247.86 75.11 L244.63 75.46 L241.23 77.71 L238.22 80.84 L237.14 83.03 L236.99 86.25 L241.07 86.72 L242.32 89.32 L243.62 91.42 L247.51 90.88 L252.67 92.08 L255.45 93.13 L257.43 94.45 L260.91 95.21 L263.86 96.38 L268.44 96.54 L271.46 96.81 L271.01 99.22 L271.88 102.01 L273.89 105.12 L278.02 107.75 L280.16 106.85 L281.66 103.99 L280.21 99.61 L278.25 98.15 L282.70 96.84 L285.85 94.90 L287.39 92.96 L287.16 91.10 L285.27 88.74 L281.90 86.65 L285.18 83.74 L283.96 81.23 L283.04 76.89 L284.97 76.25 L289.73 77.00 L292.59 77.27 L294.89 76.54 L297.48 77.49 L300.90 79.10 L301.74 80.17 L306.69 80.38 L306.61 82.72 L307.53 86.23 L310.07 86.66 L312.08 88.30 L316.11 86.76 L318.76 83.69 L320.60 82.40 L322.76 84.88 L326.38 88.42 L329.45 91.76 L328.34 93.50 L332.03 95.07 L334.53 96.66 L338.96 97.37 L340.74 98.26 L341.84 100.61 L344.01 100.98 L345.12 102.03 L345.32 105.15 L343.31 106.19 L341.31 107.17 L336.74 108.15 L333.24 110.44 L328.55 110.89 L322.60 110.30 L318.44 110.28 L315.56 110.48 L313.23 112.47 L309.69 113.70 L305.68 117.38 L302.49 119.94 L304.85 119.48 L309.31 115.83 L315.13 113.52 L319.29 113.24 L321.75 114.60 L319.12 116.47 L320.00 119.46 L320.91 121.56 L324.52 122.95 L329.11 122.54 L331.89 119.42 L332.09 121.44 L333.88 122.44 L330.45 124.26 L324.29 125.92 L321.54 127.04 L318.43 129.04 L316.32 128.84 L316.22 126.49 L321.04 124.19 L316.59 124.28 L313.51 124.62 L313.99 125.53 L311.02 126.87 L308.17 127.83 L305.23 128.66 L303.64 130.47 L303.29 130.93 L303.26 132.40 L304.18 133.87 L305.33 133.94 L305.04 132.93 L305.88 133.55 L305.65 134.34 L303.78 134.79 L302.44 134.74 L300.39 135.22 L299.18 135.36 L297.57 135.50 L295.25 136.30 L299.33 135.78 L300.15 136.31 L296.26 137.14 L294.49 137.14 L294.58 136.80 L293.73 137.57 L294.55 137.70 L293.95 139.70 L291.93 141.83 L291.72 141.12 L291.11 140.98 L290.20 140.28 L290.78 141.78 L291.43 142.27 L291.51 143.32 L290.62 144.40 L289.06 146.62 L288.80 146.51 L289.66 144.62 L288.24 143.56 L287.92 141.25 L287.38 142.45 L287.97 144.21 L286.22 143.80 L288.05 144.67 L288.17 147.32 L288.97 147.51 L289.26 148.47 L289.65 151.25 L287.88 153.31 L285.01 154.13 L283.18 155.76 L281.79 155.94 L280.39 156.96 L279.99 157.89 L276.94 159.70 L275.38 161.02 L274.07 162.67 L273.64 164.64 L274.13 166.57 L275.06 168.94 L276.29 170.91 L276.31 172.11 L277.62 175.33 L277.53 177.21 L277.41 178.29 L276.72 179.98 L275.89 180.33 L274.52 180.00 L274.08 178.78 L273.03 178.14 L271.56 175.75 L270.26 173.62 L269.85 172.54 L270.42 170.69 L269.64 169.17 L267.47 166.84 L266.39 166.42 L263.59 167.68 L263.09 167.54 L261.74 166.24 L260.00 165.56 L256.86 165.90 L254.40 165.60 L252.28 165.79 L251.10 166.18 L251.63 166.96 L251.58 168.09 L252.17 168.64 L251.64 169.00 L250.61 168.59 L249.57 169.12 L247.56 169.03 L245.48 167.56 L243.06 167.91 L241.04 167.27 L239.31 167.46 L236.97 168.11 L234.44 170.17 L231.68 171.37 L230.17 172.69 L229.53 173.94 L229.50 175.86 L229.64 177.19 L230.17 178.14 L230.17 178.14 L230.16 178.15 L229.09 180.58 L228.60 182.58 L228.40 186.30 L228.13 187.65 L228.61 189.17 L229.48 190.52 L230.03 192.68 L231.87 194.75 L232.52 196.33 L233.61 197.70 L236.56 198.44 L237.71 199.60 L240.14 198.82 L242.26 198.54 L244.34 198.04 L246.09 197.57 L247.86 196.43 L248.52 194.81 L248.75 192.48 L249.23 191.67 L251.11 190.94 L254.04 190.30 L256.50 190.39 L258.19 190.16 L258.86 190.75 L258.76 192.08 L257.27 193.73 L256.61 195.43 L257.12 195.91 L256.70 197.11 L256.01 199.28 L255.30 198.56 L254.72 198.61 L254.73 199.02 L255.26 199.03 L255.21 199.79 L254.76 200.99 L255.01 201.42 L254.71 202.41 L254.89 202.68 L254.57 204.08 L254.02 204.82 L253.52 204.91 L252.97 205.87 L253.88 206.37 L254.12 205.96 L254.93 206.31 L255.22 206.42 L255.83 205.93 L256.62 205.89 L256.88 206.12 L257.31 205.98 L258.60 206.23 L259.89 206.16 L260.78 205.85 L261.11 205.54 L261.99 205.68 L262.66 205.87 L263.38 205.81 L263.93 205.57 L265.20 205.95 L265.64 206.01 L266.49 206.53 L267.29 207.16 L268.30 207.58 L269.04 208.34 L268.80 208.61 L268.66 209.23 L268.94 210.25 L268.30 211.19 L268.00 212.31 L267.91 213.54 L268.06 214.25 L268.13 215.50 L267.71 215.78 L267.45 216.96 L267.64 217.70 L267.07 218.41 L267.20 219.16 L267.62 219.61 L268.33 221.12 L269.40 222.24 L270.70 223.43 L271.70 224.42 L271.65 225.01 L272.75 225.14 L273.02 224.91 L273.78 225.59 L275.15 225.39 L276.33 224.69 L278.01 224.13 L278.96 223.30 L280.50 223.46 L280.39 223.74 L281.94 223.83 L283.18 224.31 L284.08 225.15 L285.13 225.92 L286.56 226.00 L288.65 224.06 L289.79 223.77 L289.82 222.85 L290.33 220.50 L291.93 219.21 L293.68 219.16 L293.90 218.58 L296.07 218.81 L298.26 217.41 L299.34 216.79 L300.68 215.45 L301.67 215.62 L302.40 216.35 L301.86 217.29 L301.78 217.94 L300.15 218.27 L301.05 219.53 L301.02 220.98 L299.79 222.60 L300.85 224.80 L302.04 224.62 L302.67 222.61 L301.81 221.63 L301.67 219.53 L305.12 218.40 L304.74 217.09 L305.71 216.22 L306.71 218.17 L308.66 218.21 L310.46 219.76 L310.57 220.68 L313.07 220.71 L316.03 220.42 L317.62 221.66 L319.75 222.01 L321.31 221.14 L321.34 220.44 L324.78 220.27 L328.11 220.23 L325.75 221.05 L326.70 222.37 L328.92 222.57 L331.03 223.94 L331.47 226.17 L332.92 226.10 L334.00 226.76 L335.83 227.78 L337.55 229.59 L337.63 231.02 L338.67 231.09 L340.16 232.44 L341.26 233.41 L344.59 233.96 L344.88 233.46 L347.13 233.26 L350.12 234.01 L351.06 234.32 L353.11 234.97 L356.05 237.32 L356.51 238.45 L357.45 238.32 L358.14 239.86 L359.70 244.72 L361.18 245.18 L361.26 247.09 L359.17 249.38 L360.03 250.22 L364.94 250.65 L365.04 253.44 L367.15 251.62 L370.65 252.61 L375.26 254.31 L376.62 255.94 L376.16 257.48 L379.39 256.62 L384.80 258.09 L388.95 257.98 L393.05 260.28 L396.60 263.39 L398.74 264.19 L401.12 264.30 L402.12 265.18 L403.07 268.72 L403.53 270.40 L402.42 274.99 L401.01 276.80 L397.09 280.67 L395.32 283.81 L393.27 286.22 L392.57 286.27 L391.80 288.31 L391.99 293.52 L391.22 297.80 L390.92 299.63 L390.05 300.73 L389.55 304.44 L386.74 308.07 L386.26 310.94 L384.02 312.14 L383.37 313.81 L380.35 313.80 L375.98 314.87 L374.02 316.10 L370.91 316.91 L367.64 319.13 L365.29 321.88 L364.89 323.95 L365.35 325.49 L364.83 328.29 L364.20 329.65 L362.26 331.18 L359.18 336.07 L356.73 338.27 L354.84 339.57 L353.58 342.21 L351.74 343.80 L350.54 345.55 L347.40 347.09 L345.35 346.54 L343.85 346.83 L341.28 345.64 L339.39 345.73 L337.70 344.19 L337.51 345.64 L341.04 348.02 L340.66 349.94 L342.40 351.15 L342.25 352.50 L339.59 356.07 L335.47 357.56 L329.90 358.13 L326.84 357.85 L327.43 359.51 L326.86 361.59 L327.37 362.99 L325.71 363.97 L322.86 364.35 L320.19 363.34 L319.12 364.07 L319.50 366.83 L321.38 367.66 L322.90 366.79 L323.73 368.23 L321.17 369.09 L318.94 370.82 L318.53 373.61 L317.87 375.10 L315.25 375.11 L313.07 376.53 L312.28 378.62 L315.01 380.65 L317.66 381.21 L316.71 383.70 L313.43 385.27 L311.62 388.53 L309.09 389.62 L307.95 390.92 L308.85 393.81 L310.69 395.42 L309.52 395.28 L307.05 395.26 L305.71 395.94 L303.21 396.94 L302.76 399.54 L301.58 399.60 L298.45 398.70 L295.27 396.76 L291.81 395.17 L290.94 393.41 L291.73 391.79 L290.33 389.94 L289.98 385.20 L291.16 382.53 L294.09 380.39 L289.88 379.58 L292.52 377.12 L293.47 372.51 L296.55 373.49 L298.01 367.73 L296.14 366.99 L295.27 370.46 L293.52 370.07 L294.39 366.10 L295.34 360.95 L296.62 359.05 L295.82 356.34 L295.59 353.21 L296.76 353.12 L298.46 348.64 L300.38 344.19 L301.56 340.05 L300.92 335.89 L301.75 333.60 L301.42 330.17 L303.04 326.78 L303.54 321.41 L304.43 315.64 L305.30 309.43 L305.10 304.88 L304.52 300.97 L301.74 299.37 L301.49 298.23 L295.99 295.44 L291.01 292.40 L288.86 290.69 L287.71 288.40 L288.17 287.60 L285.82 283.95 L283.08 278.83 L280.45 273.30 L279.32 272.03 L278.44 269.98 L276.28 268.17 L274.31 267.05 L275.20 265.81 L273.86 263.16 L274.72 261.21 L276.94 259.46 L278.42 257.38 L277.82 256.17 L276.75 257.46 L275.09 256.24 L275.65 255.46 L275.18 252.94 L276.16 252.52 L276.67 250.79 L277.72 249.00 L277.53 247.87 L279.05 247.27 L280.96 246.16 L280.58 245.30 L281.62 245.09 L281.49 243.70 L282.15 242.70 L283.52 242.51 L284.69 240.76 L285.76 239.31 L284.73 238.65 L285.26 237.03 L284.63 234.49 L285.23 233.76 L284.79 231.41 L283.66 229.93 L282.74 229.13 L282.14 227.63 L282.83 226.89 L282.12 226.70 L281.61 225.78 L280.22 225.01 L279.01 225.19 L278.44 226.15 L277.32 226.85 L276.71 226.95 L276.44 227.53 L277.77 229.03 L277.01 229.39 L276.61 229.80 L275.32 229.94 L274.83 228.28 L274.47 228.76 L273.56 228.59 L273.00 227.48 L271.86 227.29 L271.14 226.97 L269.94 226.97 L269.86 227.57 L269.54 227.15 L268.03 226.54 L267.47 225.95 L267.79 225.47 L267.69 224.86 L266.92 224.19 L265.82 223.65 L264.87 223.29 L264.69 222.48 L263.96 221.98 L264.14 222.79 L263.58 223.45 L262.95 222.68 L262.05 222.41 L261.67 221.85 L261.69 221.00 L262.06 220.13 L261.27 219.74 L261.91 219.20 L260.95 218.32 L259.65 217.20 L259.04 216.27 L257.87 215.39 L256.48 214.14 L256.78 213.71 L257.24 214.13 L257.45 213.93 L256.97 213.06 L256.13 212.82 L255.82 213.47 L254.21 213.43 L253.21 213.17 L252.06 212.61 L250.52 212.44 L249.73 211.85 L248.31 211.36 L246.58 211.31 L245.31 210.76 L243.81 209.61 L240.67 206.62 L239.24 205.72 L236.97 205.00 L235.42 205.20 L233.18 206.24 L231.79 206.52 L229.82 205.79 L227.74 205.26 L225.15 203.98 L223.06 203.59 L219.92 202.30 L217.59 200.97 L216.89 200.23 L215.34 200.07 L212.50 199.19 L211.34 197.92 L208.36 196.34 L206.96 194.59 L206.30 193.24 L207.23 192.97 L206.94 192.18 L207.58 191.45 L207.59 190.49 L206.66 189.25 L206.41 188.14 L205.48 186.74 L203.03 183.98 L200.23 181.81 L198.88 180.08 L196.50 178.94 L195.99 178.26 L196.41 176.55 L195.00 175.90 L193.36 174.55 L192.66 172.61 L191.17 172.39 L189.56 170.92 L188.25 169.57 L188.13 168.70 L186.64 166.61 L185.66 164.48 L185.70 163.41 L183.69 162.31 L182.76 162.43 L181.18 161.67 L180.73 162.80 L181.19 164.13 L181.46 166.21 L182.41 167.36 L184.48 169.27 L184.93 169.93 L185.36 170.13 L185.72 171.08 L186.22 171.04 L186.77 172.83 L187.62 173.54 L188.21 174.52 L189.95 175.94 L190.88 178.52 L191.70 179.74 L192.47 181.04 L192.62 182.50 L193.96 182.60 L195.08 183.86 L196.09 185.10 L196.02 185.60 L194.85 186.62 L194.36 186.60 L193.63 184.91 L191.81 183.33 L189.80 181.99 L188.38 181.28 L188.48 179.25 L188.05 177.74 L186.73 176.88 L184.82 175.64 L184.45 176.00 L183.75 175.28 L182.04 174.61 L180.40 172.99 L180.61 172.78 L181.75 172.94 L182.78 171.90 L182.88 170.65 L180.74 168.67 L179.11 167.90 L178.09 166.16 L177.06 164.34 L175.77 162.12 L174.65 159.62 L174.18 158.20 L172.38 156.61 L171.08 156.28 L170.78 155.48 L169.22 155.34 L168.23 154.59 L165.65 154.31 L164.94 153.87 L164.60 152.34 L161.90 149.55 L159.59 145.69 L159.69 145.05 L158.46 144.13 L156.31 141.80 L155.93 139.54 L154.45 138.02 L155.06 135.72 L154.96 133.33 L154.08 131.21 L155.16 128.59 L155.84 123.55 L155.33 119.82 L154.46 117.44 L153.65 116.15 L153.98 115.61 L158.00 116.56 L159.48 119.18 L160.17 118.44 L159.72 116.17 L158.78 113.89 L158.41 113.88 L153.03 111.15 L151.04 109.95 L146.01 108.80 L144.46 106.34 L144.86 104.64 L141.31 103.46 L140.82 101.22 L137.46 99.20 L137.40 97.77 L135.87 96.73 L133.42 95.84 L132.64 93.42 L129.06 91.17 L127.56 88.55 L124.89 88.37 L120.48 88.30 L117.22 87.50 L111.48 84.62 L108.82 84.09 L103.96 83.10 L100.11 83.34 L94.65 82.06 L91.35 80.88 L88.27 81.46 L88.84 83.39 L87.30 83.57 L84.09 84.15 L81.64 85.09 L78.57 85.68 L78.17 84.04 L79.42 81.32 L82.37 80.46 L81.61 79.77 L78.07 81.31 L76.17 83.16 L72.17 85.14 L74.20 86.49 L71.58 88.48 L68.59 89.64 L65.81 90.49 L65.12 91.72 L60.79 93.16 L59.91 94.46 L56.66 95.65 L54.75 95.43 L52.16 96.21 L49.34 97.15 L47.03 98.08 L42.26 98.88 L41.83 98.41 L44.87 97.11 L47.58 96.26 L50.54 94.74 L53.99 94.42 L55.36 93.28 L59.21 91.62 L59.83 91.06 L61.88 90.08 L62.36 87.98 L63.77 86.34 L60.57 87.18 L59.67 86.70 L58.17 87.71 L56.36 86.30 L55.61 87.30 L54.57 85.91 L51.79 87.03 L50.09 87.02 L49.85 85.37 L50.35 84.35 L48.56 83.36 L44.95 83.89 L42.61 82.59 L40.70 81.92 L40.69 80.35 L38.55 79.17 L39.63 77.57 L41.89 76.02 L42.88 74.59 L45.13 74.39 L47.04 74.83 L49.28 73.49 L51.29 73.73 L53.41 72.87 L52.89 71.60 L51.34 71.10 L53.40 70.03 L51.69 70.06 L48.74 70.67 L47.89 71.28 L45.70 70.67 L41.78 70.98 L37.71 70.31 L36.54 69.20 L33.03 67.58 L36.93 66.42 L43.13 65.06 L45.41 65.06 L45.03 66.45 L50.90 66.34 L48.64 64.62 L45.22 63.57 L43.25 62.18 L40.58 60.99 L36.77 60.11 L38.32 58.66 L43.25 58.57 L46.75 57.30 L47.42 55.95 L50.25 54.63 L52.96 54.31 L58.22 53.08 L60.78 53.26 L65.05 51.78 L69.26 52.37 L71.27 53.62 L72.50 53.08 L77.19 53.25 L77.03 53.89 L81.28 54.36 L84.11 54.08 L89.96 54.96 L95.31 55.22 L97.44 55.58 L101.14 55.13 L105.35 55.97 L108.37 56.36 L113.55 57.02 L117.93 58.36 L120.82 58.62 L123.26 57.46 L126.63 56.59 L130.75 56.93 L134.91 55.71 L139.46 55.02 L141.37 56.17 L143.44 55.52 L144.06 54.21 L145.98 54.51 L150.68 57.00 L154.38 55.12 L154.75 57.22 L158.16 56.77 L159.21 55.96 L162.58 56.12 L166.83 57.28 L173.33 58.30 L177.15 58.77 L179.87 58.59 L183.62 60.00 L179.71 61.38 L184.73 61.98 L192.23 61.65 L194.59 61.16 L197.56 62.83 L200.58 61.42 L197.74 60.25 L199.54 59.29 L202.92 59.17 L205.14 58.89 L207.38 59.55 L210.17 61.06 L213.27 60.84 L218.18 62.09 L222.49 61.65 L226.55 61.72 L226.23 59.99 L228.70 59.50 L233.00 60.45 L232.98 63.07 L234.75 60.86 L236.99 60.93 L238.24 58.14 L235.27 56.43 L232.02 55.31 L232.25 52.24 L235.53 50.22 L239.19 50.67 L242.01 51.89 L245.78 55.02 L243.31 56.39 L248.48 56.95 Z"/>
    <path d="M182.87 46.88 L181.48 48.19 L187.66 47.35 L191.53 48.75 L194.67 47.33 L197.20 48.24 L199.48 50.97 L200.87 49.82 L198.90 46.97 L201.34 46.57 L204.10 47.01 L207.22 48.13 L208.96 50.84 L209.82 52.80 L214.49 54.17 L219.50 55.49 L219.20 56.71 L214.64 56.93 L216.41 58.00 L215.47 59.02 L210.44 58.58 L205.67 57.83 L202.44 58.00 L197.22 58.94 L188.98 59.43 L185.24 59.62 L183.74 58.31 L179.94 57.56 L177.48 57.87 L174.06 55.67 L175.90 55.37 L180.19 54.90 L184.11 55.02 L187.73 54.54 L182.36 53.89 L176.43 54.11 L172.49 54.05 L171.02 53.03 L177.46 51.92 L173.18 51.96 L168.33 51.23 L170.66 49.14 L172.59 48.04 L180.03 46.35 L182.87 46.88 Z"/>
    <path d="M209.72 46.06 L207.28 47.89 L202.94 45.94 L203.89 45.56 L207.61 45.44 L209.72 46.06 Z"/>
    <path d="M287.94 46.94 L288.19 47.70 L285.24 47.62 L282.25 47.56 L279.20 47.94 L278.40 47.77 L275.34 46.30 L275.46 45.30 L276.80 45.11 L283.15 45.41 L287.94 46.94 Z"/>
    <path d="M259.55 46.78 L261.74 48.52 L264.31 46.28 L271.35 45.14 L276.11 48.01 L275.70 49.83 L281.19 49.02 L283.82 47.92 L289.98 49.32 L293.81 50.65 L294.17 51.86 L299.33 51.23 L302.22 53.00 L308.93 54.10 L311.35 55.22 L313.97 57.82 L308.87 59.11 L315.42 60.92 L319.83 61.53 L323.82 64.09 L328.19 64.27 L327.32 66.22 L322.45 69.45 L319.03 68.26 L314.66 65.59 L311.07 65.94 L310.72 67.53 L313.64 69.14 L317.41 70.42 L318.56 71.16 L320.36 73.91 L319.41 75.91 L315.90 75.15 L308.94 72.93 L312.86 75.32 L315.75 77.00 L316.21 77.97 L308.67 76.86 L302.71 75.25 L299.35 73.89 L300.32 73.11 L296.17 71.68 L292.13 70.34 L292.17 71.14 L284.14 71.58 L281.79 70.63 L283.62 68.59 L288.84 68.54 L294.56 68.18 L293.63 67.19 L294.60 65.80 L298.19 63.10 L297.43 61.87 L296.36 60.92 L292.10 59.57 L286.47 58.63 L288.25 57.92 L285.31 56.20 L282.86 56.04 L280.67 55.09 L279.19 55.91 L274.15 56.27 L264.04 55.65 L258.17 54.83 L253.66 54.41 L251.35 53.44 L254.26 52.17 L250.31 52.16 L249.43 49.35 L251.57 46.86 L254.42 45.73 L261.59 44.99 L259.55 46.78 Z"/>
    <path d="M221.23 44.88 L224.54 45.46 L229.50 45.11 L230.22 45.92 L227.63 47.25 L231.83 48.44 L231.33 50.94 L226.78 52.02 L224.10 51.79 L222.18 50.73 L215.28 48.58 L215.33 47.69 L221.00 48.04 L217.94 46.22 L221.23 44.88 Z"/>
    <path d="M898.90 46.63 L894.69 46.65 L888.99 46.34 L888.51 46.19 L891.14 45.10 L894.62 44.84 L898.56 45.90 L898.90 46.63 Z"/>
    <path d="M241.12 47.86 L238.14 49.93 L234.97 49.83 L233.24 47.39 L233.28 46.01 L234.73 44.83 L237.49 44.07 L243.28 44.17 L248.58 44.84 L244.43 47.32 L241.12 47.86 Z"/>
    <path d="M165.39 51.67 L158.08 53.05 L156.61 51.83 L150.20 50.36 L151.13 49.46 L153.31 47.16 L155.72 45.33 L153.01 43.63 L162.39 43.20 L166.36 43.77 L173.46 43.93 L176.15 44.73 L179.14 45.90 L175.64 46.60 L168.83 48.56 L165.39 50.50 L165.39 51.67 Z"/>
    <path d="M918.70 41.43 L915.49 42.53 L911.05 42.28 L905.89 41.19 L906.55 40.29 L911.73 40.71 L918.70 41.43 Z"/>
    <path d="M239.96 41.72 L238.45 42.80 L234.42 42.59 L231.05 41.87 L232.53 40.62 L236.53 39.87 L238.95 40.84 L239.96 41.72 Z"/>
    <path d="M903.02 40.10 L900.83 42.17 L890.59 42.09 L885.99 42.75 L880.48 40.94 L881.98 39.03 L885.64 38.51 L892.98 38.63 L903.02 40.10 Z"/>
    <path d="M226.39 36.89 L228.51 38.18 L228.60 39.60 L227.33 41.67 L222.75 41.95 L219.77 41.51 L219.83 39.89 L215.27 40.10 L215.10 37.95 L218.08 38.04 L222.27 37.09 L226.18 37.25 L226.39 36.89 Z"/>
    <path d="M199.41 38.33 L200.50 39.32 L202.98 38.85 L205.89 38.97 L206.38 40.33 L204.68 41.65 L195.28 42.08 L188.27 43.29 L184.04 43.35 L183.69 42.44 L189.46 41.22 L176.91 41.55 L173.03 41.05 L176.82 38.34 L179.43 37.56 L187.25 38.50 L192.18 40.14 L197.04 40.35 L193.06 37.69 L195.61 36.68 L198.48 37.00 L199.41 38.33 Z"/>
    <path d="M659.82 53.55 L658.18 53.80 L649.10 53.44 L648.37 52.20 L643.34 51.46 L642.93 49.96 L645.77 49.36 L645.68 47.85 L651.19 45.48 L648.63 45.14 L655.28 42.70 L654.53 41.44 L660.75 39.97 L669.92 38.19 L679.16 37.67 L683.92 36.64 L689.33 36.28 L691.26 37.38 L689.39 38.24 L679.55 39.62 L671.07 40.94 L662.44 43.59 L658.30 46.30 L653.94 48.97 L654.51 51.28 L659.82 53.55 Z"/>
    <path d="M236.99 35.84 L240.07 36.73 L245.54 36.73 L247.94 37.64 L247.31 38.68 L250.49 39.31 L252.26 39.97 L256.00 40.09 L260.06 40.33 L264.47 39.72 L270.13 39.49 L274.64 39.68 L277.62 40.73 L278.24 41.88 L276.51 42.62 L272.36 43.22 L268.81 42.88 L260.84 43.31 L255.14 43.35 L250.65 43.01 L243.27 42.12 L242.31 40.59 L241.97 39.21 L239.18 38.00 L233.44 37.66 L230.22 36.80 L231.26 35.66 L236.99 35.84 Z"/>
    <path d="M177.23 34.32 L176.84 36.45 L174.71 37.42 L172.11 37.55 L166.95 38.74 L162.50 39.17 L158.74 38.57 L158.74 38.57 L163.45 36.49 L169.16 34.69 L173.42 34.73 L177.23 34.32 Z"/>
    <path d="M797.14 36.18 L797.89 37.56 L800.43 36.88 L808.55 36.92 L814.81 38.27 L817.04 39.31 L816.35 40.76 L813.28 41.58 L805.98 43.12 L803.89 43.94 L807.33 44.33 L811.44 45.03 L813.94 44.51 L815.36 46.29 L816.58 45.57 L821.02 45.13 L829.93 45.59 L830.61 46.89 L842.22 47.30 L842.38 45.18 L848.28 45.67 L852.71 45.65 L857.20 47.11 L858.48 48.89 L856.83 50.06 L860.32 52.24 L864.69 53.37 L867.37 50.45 L871.83 51.70 L876.56 50.96 L881.94 51.81 L883.98 51.03 L888.53 51.42 L886.52 48.84 L890.19 47.64 L915.28 49.44 L917.64 51.09 L924.91 53.22 L936.13 52.69 L941.66 53.15 L943.97 54.30 L943.64 56.33 L947.06 57.12 L950.78 56.55 L955.70 56.48 L960.95 57.02 L966.21 56.71 L971.05 59.18 L974.49 58.30 L972.25 56.52 L973.48 55.29 L982.34 56.06 L988.12 55.90 L996.11 57.22 L1000.00 58.43 L1000.00 69.50 L999.98 69.52 L996.41 70.74 L992.81 70.53 L995.31 72.01 L996.97 74.30 L998.25 75.05 L998.57 76.20 L997.86 76.93 L992.68 76.33 L984.91 78.42 L982.44 78.74 L978.19 80.69 L974.16 82.40 L973.14 83.66 L969.17 81.74 L961.93 83.92 L960.67 82.89 L957.99 84.08 L954.28 83.70 L953.38 85.52 L950.05 88.21 L950.15 89.34 L953.31 89.96 L952.94 94.00 L950.36 94.10 L949.17 96.43 L950.33 97.62 L945.47 99.04 L944.50 102.21 L940.36 102.89 L939.53 105.71 L935.53 108.30 L934.50 106.39 L933.31 102.34 L931.76 96.16 L933.10 92.31 L935.44 90.65 L935.58 89.36 L939.90 88.73 L944.86 85.24 L949.64 82.38 L954.64 80.16 L956.87 76.25 L953.50 76.48 L951.83 78.77 L944.78 81.82 L942.51 78.41 L935.34 79.35 L928.38 84.00 L930.68 85.71 L924.48 86.43 L920.18 86.72 L920.38 84.71 L916.07 84.29 L912.62 85.65 L904.13 85.18 L894.99 86.00 L886.00 91.42 L875.35 97.97 L879.73 98.32 L881.09 100.06 L883.79 100.68 L885.57 99.29 L888.62 99.47 L892.63 102.53 L892.72 104.89 L890.55 107.67 L890.31 110.98 L889.06 115.43 L884.87 119.45 L883.94 121.37 L880.17 124.60 L876.43 127.81 L874.64 129.45 L870.94 131.08 L869.18 131.12 L867.44 129.77 L863.71 131.80 L863.28 132.72 L862.22 132.56 L861.02 133.50 L860.19 134.44 L860.29 136.44 L858.86 137.05 L858.36 137.54 L857.32 138.36 L855.47 138.82 L854.26 139.56 L854.17 140.77 L853.85 141.07 L854.95 141.53 L856.53 142.74 L858.92 146.02 L859.61 147.82 L859.63 151.02 L858.59 152.55 L856.07 153.08 L853.85 154.23 L851.35 154.47 L851.04 152.96 L851.55 150.88 L850.33 147.98 L852.39 147.52 L850.49 145.14 L849.14 144.61 L848.80 145.13 L847.99 145.36 L847.89 144.84 L847.17 144.59 L846.42 144.14 L847.18 142.92 L847.84 142.59 L847.59 142.09 L848.30 140.59 L848.11 140.13 L846.49 139.83 L845.18 139.09 L841.30 139.89 L839.25 141.19 L836.26 141.95 L837.74 140.66 L837.16 139.58 L839.36 137.72 L837.89 136.26 L835.47 137.24 L832.33 139.17 L830.62 140.97 L827.90 141.10 L826.48 142.40 L827.94 144.27 L830.22 144.73 L830.31 145.98 L832.51 146.79 L835.62 144.80 L838.09 145.89 L839.88 145.96 L840.33 147.41 L836.40 148.19 L835.10 149.69 L832.40 151.08 L830.98 153.03 L833.97 154.55 L835.06 157.29 L836.75 159.83 L838.63 161.97 L838.59 164.03 L836.85 164.79 L837.51 166.27 L839.14 167.13 L838.72 169.39 L838.01 171.60 L836.46 171.85 L834.43 174.85 L832.18 178.50 L829.60 181.81 L825.78 184.38 L821.92 186.71 L818.79 187.03 L817.09 188.27 L816.13 187.37 L814.56 188.75 L810.68 190.14 L807.74 190.56 L806.79 193.50 L805.25 193.66 L804.52 191.64 L805.18 190.57 L801.45 189.68 L800.14 190.13 L796.43 192.51 L794.12 195.13 L793.51 197.06 L795.63 199.99 L798.23 203.62 L800.75 205.33 L802.44 207.56 L803.71 212.71 L803.33 217.59 L801.02 219.42 L797.84 221.21 L795.57 223.53 L792.11 226.11 L791.10 224.33 L791.88 222.45 L789.82 220.87 L787.49 220.46 L786.36 219.02 L784.96 216.15 L782.46 214.87 L780.09 214.92 L780.50 212.74 L778.05 212.76 L777.83 215.81 L776.33 219.87 L775.43 222.32 L775.62 224.34 L777.43 224.42 L778.55 226.96 L779.05 229.36 L780.60 230.95 L782.29 231.28 L783.73 232.72 L784.36 232.98 L786.00 234.65 L787.17 236.51 L787.33 238.38 L787.03 239.65 L787.30 240.60 L787.51 242.25 L788.49 243.01 L789.58 245.47 L789.52 246.41 L787.55 246.59 L784.93 244.54 L781.64 242.33 L781.32 240.92 L779.71 239.06 L779.33 236.76 L778.32 235.24 L778.63 233.22 L778.02 232.04 L776.92 230.98 L776.44 229.60 L774.97 228.03 L773.62 226.72 L773.17 228.35 L772.64 226.81 L772.94 225.07 L773.76 222.41 L773.49 220.35 L774.35 218.22 L773.41 216.57 L773.64 213.55 L772.51 212.11 L771.60 208.79 L771.10 205.28 L769.90 202.98 L768.07 204.37 L764.91 206.35 L763.36 206.10 L761.64 205.45 L762.59 202.01 L762.01 199.41 L759.84 196.20 L760.18 195.20 L758.55 194.85 L756.58 192.58 L755.79 191.13 L755.63 189.72 L755.10 188.38 L753.94 186.76 L751.38 186.65 L751.63 187.80 L750.76 189.34 L749.58 188.78 L749.17 189.29 L748.39 188.98 L747.31 188.73 L746.91 189.75 L745.02 189.71 L741.60 190.29 L741.76 192.38 L740.28 194.02 L736.28 195.89 L733.17 199.16 L731.08 200.91 L728.31 202.73 L728.31 204.01 L726.92 204.69 L724.42 205.69 L723.12 205.84 L722.29 207.95 L722.87 211.57 L723.02 213.87 L721.84 216.51 L721.83 221.23 L720.39 221.36 L719.13 223.48 L719.97 224.40 L717.44 225.19 L716.50 227.08 L715.39 227.87 L712.76 225.28 L711.47 221.39 L710.41 218.59 L709.43 217.27 L707.96 214.61 L707.27 211.13 L706.79 209.40 L704.26 205.58 L703.11 200.20 L702.28 196.64 L702.29 193.28 L701.75 190.68 L697.71 192.34 L695.75 192.01 L692.12 188.64 L693.46 187.64 L692.64 186.55 L689.38 184.19 L687.34 183.49 L686.52 181.49 L684.37 179.37 L679.25 179.90 L674.74 179.95 L670.83 180.34 L665.60 179.50 L662.57 178.86 L659.44 178.50 L658.25 175.09 L656.92 174.60 L654.79 175.10 L651.99 176.44 L648.59 175.52 L645.79 173.39 L643.11 172.60 L641.26 169.96 L639.21 166.26 L637.71 166.71 L635.95 165.79 L634.91 166.87 L633.26 166.73 L633.84 167.96 L633.59 168.59 L634.49 170.69 L635.58 173.08 L636.94 173.72 L637.42 174.69 L639.31 175.86 L639.48 177.01 L639.20 177.93 L639.56 178.87 L640.35 179.64 L640.72 180.56 L641.14 181.24 L640.96 179.22 L641.70 177.76 L642.46 177.46 L643.30 178.33 L643.35 179.96 L642.75 181.59 L643.28 182.65 L643.77 182.52 L643.87 183.28 L646.05 182.84 L648.34 182.91 L650.02 182.99 L651.93 181.12 L654.00 179.34 L655.75 177.62 L656.56 176.68 L656.90 176.92 L656.64 178.07 L656.28 178.57 L656.66 180.76 L657.90 182.66 L659.45 183.67 L661.49 184.03 L663.14 184.54 L664.39 186.13 L665.14 187.05 L666.13 187.41 L666.13 188.03 L665.12 189.68 L664.67 190.46 L663.50 191.35 L662.47 193.25 L661.21 193.11 L660.63 193.77 L660.18 195.18 L660.52 197.03 L660.26 197.38 L658.98 197.37 L657.25 198.40 L656.98 199.76 L656.34 200.34 L654.62 200.32 L653.53 201.02 L653.54 202.14 L652.20 202.91 L650.66 202.65 L648.81 203.59 L647.52 203.75 L645.51 204.49 L644.98 205.73 L644.91 206.67 L642.15 207.85 L637.71 209.14 L635.22 211.10 L634.00 211.26 L633.16 211.09 L631.54 212.24 L629.77 212.78 L627.44 212.92 L626.74 213.08 L626.13 213.81 L625.40 214.02 L624.97 214.72 L623.60 214.66 L622.71 215.04 L620.79 214.90 L620.06 213.28 L620.14 211.76 L619.69 210.94 L619.15 208.88 L618.35 207.74 L618.90 207.61 L618.62 206.34 L618.95 205.80 L618.83 204.59 L618.47 203.40 L617.63 202.57 L617.42 201.46 L615.98 200.46 L614.50 198.13 L613.72 195.87 L611.80 193.96 L610.56 193.50 L608.72 190.86 L608.40 188.93 L608.52 187.28 L606.92 184.20 L605.62 183.11 L604.12 182.54 L603.21 180.95 L603.36 180.32 L602.59 178.88 L601.78 178.26 L600.69 176.19 L599.00 173.95 L597.58 172.05 L596.20 172.06 L596.63 170.53 L596.76 169.56 L597.10 168.45 L597.01 168.05 L596.23 169.17 L595.63 171.27 L594.87 172.71 L594.23 173.20 L593.30 172.30 L592.05 171.06 L590.06 167.08 L589.78 167.33 L590.93 170.26 L592.64 173.06 L594.74 177.38 L595.76 178.89 L596.65 180.46 L599.15 183.54 L598.59 184.02 L598.68 185.83 L601.92 188.32 L602.41 188.89 L603.30 191.61 L602.69 192.12 L603.10 194.98 L604.12 198.29 L605.17 198.98 L606.69 200.00 L608.31 203.22 L609.07 205.77 L610.60 207.12 L614.39 209.75 L615.93 211.33 L617.44 212.93 L618.30 213.89 L619.67 214.72 L620.33 215.58 L620.24 216.74 L618.66 217.40 L619.85 218.16 L620.75 218.67 L621.30 219.82 L622.55 220.98 L623.93 220.99 L626.55 220.28 L629.57 219.95 L632.02 219.09 L633.39 218.91 L634.39 218.40 L635.97 218.30 L636.86 218.25 L638.14 217.84 L639.61 217.56 L640.92 216.61 L641.98 216.60 L642.04 217.37 L641.78 218.98 L641.79 220.44 L641.21 221.45 L640.42 224.45 L639.09 227.55 L637.37 231.10 L634.98 235.17 L632.61 238.28 L629.35 242.07 L626.57 244.32 L622.41 247.08 L619.82 249.19 L616.78 252.55 L616.14 254.02 L615.51 254.68 L613.57 255.78 L612.88 256.94 L611.84 257.15 L611.45 259.10 L610.56 260.23 L610.01 262.07 L608.90 262.99 L607.61 266.41 L607.78 267.99 L609.56 269.00 L609.64 269.72 L608.87 271.40 L609.03 272.24 L608.85 273.57 L609.82 275.31 L610.97 278.05 L611.99 278.66 L612.44 279.90 L612.33 282.67 L612.67 285.11 L612.78 289.45 L613.27 290.81 L612.44 292.80 L611.36 294.72 L609.59 296.45 L607.05 297.50 L603.92 298.85 L600.78 301.83 L599.71 302.34 L597.77 304.31 L596.63 304.96 L596.39 306.94 L597.71 309.04 L598.26 310.67 L598.29 311.50 L598.79 311.36 L598.71 314.09 L598.26 315.38 L598.91 315.85 L598.50 317.01 L597.34 318.00 L595.04 318.93 L591.70 320.44 L590.49 321.46 L590.72 322.63 L591.43 322.82 L591.19 324.28 L590.50 326.31 L590.17 328.61 L589.45 329.87 L587.56 331.27 L587.02 331.67 L585.84 333.08 L585.06 334.51 L583.49 336.50 L580.35 339.37 L578.39 341.03 L576.29 342.30 L573.39 343.37 L571.97 343.52 L571.61 344.29 L569.92 343.88 L568.55 344.41 L565.54 343.87 L563.86 344.21 L562.71 344.07 L559.84 345.16 L557.47 345.60 L555.75 346.65 L554.49 346.72 L553.31 345.73 L552.38 345.68 L551.18 344.44 L551.05 344.82 L550.68 344.08 L550.69 342.45 L549.79 340.59 L550.69 340.08 L550.62 337.95 L548.80 335.35 L547.40 333.00 L547.40 332.99 L545.40 329.38 L543.34 327.28 L542.25 325.25 L541.64 322.55 L540.95 320.54 L540.02 316.26 L539.96 312.94 L539.60 311.42 L538.52 310.27 L537.09 307.98 L535.63 304.65 L535.02 302.90 L532.76 300.19 L532.60 298.06 L532.33 296.31 L532.72 293.87 L533.68 291.33 L533.82 290.14 L534.72 287.63 L535.38 286.49 L536.98 284.68 L537.87 283.44 L538.16 281.38 L538.02 279.81 L537.19 278.82 L536.45 277.13 L535.77 275.46 L535.91 274.89 L536.77 273.79 L535.93 271.10 L535.36 269.24 L533.97 267.48 L534.23 266.94 L533.84 266.08 L533.10 263.99 L530.82 261.05 L527.96 258.25 L526.13 255.96 L524.44 253.09 L524.53 252.16 L525.13 251.28 L525.81 249.25 L526.37 247.19 L525.85 246.78 L526.80 243.66 L527.21 241.46 L526.12 239.63 L524.86 239.16 L524.29 237.91 L523.58 237.51 L523.61 236.74 L520.73 237.74 L519.67 237.60 L518.61 238.22 L516.38 238.16 L514.90 236.42 L513.98 234.41 L512.02 232.58 L509.93 232.62 L507.48 232.61 L505.18 232.94 L502.94 233.53 L498.59 235.16 L497.05 236.11 L494.54 236.92 L492.07 236.13 L490.80 236.15 L488.86 235.61 L487.08 235.64 L483.79 236.13 L481.86 236.93 L479.11 237.95 L478.58 237.88 L477.85 237.90 L474.99 236.58 L472.46 234.46 L470.10 232.94 L468.23 231.15 L467.48 230.94 L465.48 229.83 L464.03 228.34 L463.54 227.32 L463.20 225.27 L461.99 223.63 L460.91 222.54 L460.19 222.18 L459.50 221.63 L459.19 220.40 L458.78 219.79 L457.97 219.33 L456.49 218.17 L455.32 217.99 L454.68 217.20 L454.70 216.78 L453.85 216.19 L453.67 215.60 L453.22 213.47 L453.57 212.24 L452.43 210.07 L451.04 209.08 L452.26 208.56 L453.61 206.61 L454.27 205.18 L454.03 203.68 L454.80 202.31 L455.15 199.70 L454.84 196.95 L454.51 195.57 L454.78 194.19 L454.07 192.87 L452.60 191.67 L452.72 190.49 L452.85 189.21 L453.92 188.45 L454.83 187.00 L454.65 186.06 L455.60 184.10 L457.15 182.34 L458.09 181.89 L458.82 180.27 L458.89 178.79 L459.89 177.07 L461.74 176.06 L463.50 173.22 L464.95 172.12 L467.53 171.81 L469.72 169.91 L471.11 169.17 L473.43 166.85 L472.74 163.40 L473.79 161.01 L474.16 159.54 L475.95 157.67 L478.74 156.40 L480.80 155.25 L482.65 152.37 L483.53 150.67 L485.57 150.68 L487.25 151.86 L489.89 151.67 L492.77 152.28 L493.97 152.31 L496.64 150.79 L499.65 150.31 L501.40 149.16 L504.07 148.32 L508.78 147.82 L513.38 147.60 L514.78 148.01 L517.39 146.91 L520.36 146.89 L521.49 147.54 L523.39 147.37 L526.42 146.25 L528.36 146.58 L528.28 147.99 L530.64 146.97 L530.83 147.50 L529.44 148.86 L529.43 150.15 L530.39 150.84 L530.02 153.24 L528.19 154.64 L528.72 156.15 L530.16 156.20 L530.86 157.52 L531.91 157.95 L535.18 158.91 L536.34 158.67 L538.66 159.13 L542.35 160.37 L543.65 162.84 L546.14 163.38 L550.06 164.55 L553.02 165.93 L554.37 165.21 L555.70 163.93 L555.06 161.80 L555.93 160.45 L557.93 159.15 L559.84 158.77 L563.60 159.34 L564.55 160.58 L565.58 160.59 L566.47 161.06 L569.23 161.39 L569.90 162.31 L573.60 162.26 L576.27 163.00 L579.03 163.82 L580.32 164.25 L582.45 163.37 L583.60 162.57 L586.05 162.34 L588.02 162.70 L588.78 164.07 L589.42 163.17 L591.65 163.82 L593.82 163.98 L595.18 163.28 L595.99 162.36 L595.80 162.21 L596.54 160.91 L597.10 158.81 L597.50 158.11 L597.57 158.08 L598.56 155.82 L599.94 153.86 L600.00 153.76 L599.74 151.64 L600.42 150.50 L599.39 149.24 L600.45 148.19 L598.75 148.43 L596.43 147.79 L594.52 149.39 L590.30 149.70 L588.05 148.21 L585.06 148.12 L584.42 149.27 L582.50 149.60 L579.81 148.12 L576.78 148.17 L575.14 145.41 L573.11 143.87 L574.46 141.71 L572.70 140.38 L575.78 137.72 L580.06 137.61 L581.22 135.50 L586.52 135.87 L589.86 134.07 L593.09 133.28 L597.69 133.22 L602.54 135.18 L606.52 136.25 L609.76 135.83 L612.15 136.07 L615.43 134.62 L615.84 133.44 L615.15 131.54 L613.54 130.52 L612.00 130.20 L610.99 129.35 L607.44 127.00 L604.28 125.95 L601.88 124.32 L603.90 123.88 L606.20 121.55 L604.65 120.45 L608.74 119.32 L608.67 118.71 L606.18 119.16 L603.96 119.38 L602.11 120.28 L599.51 120.43 L597.12 121.46 L597.28 123.19 L598.64 123.86 L601.47 123.69 L600.93 124.69 L597.89 125.17 L594.12 126.77 L592.57 126.21 L593.19 124.90 L590.15 124.09 L590.64 123.56 L593.30 122.63 L592.50 122.00 L588.18 121.30 L587.99 120.26 L585.41 120.60 L584.38 122.13 L582.23 124.19 L582.30 124.90 L580.95 125.50 L580.11 125.24 L579.33 128.59 L577.89 129.74 L576.87 131.73 L577.77 133.31 L578.10 134.38 L580.52 135.28 L580.02 135.96 L576.72 136.11 L575.53 136.97 L573.22 138.47 L572.34 137.17 L572.38 136.60 L570.69 136.52 L569.24 136.26 L565.87 136.98 L567.80 138.54 L566.39 138.99 L564.84 139.00 L563.37 137.57 L562.85 138.18 L563.47 139.84 L564.86 141.14 L563.81 141.75 L565.36 143.03 L566.74 143.83 L566.78 145.40 L564.21 144.67 L565.03 146.08 L563.26 146.37 L564.32 148.83 L562.47 148.86 L560.19 147.65 L559.15 145.43 L558.67 143.58 L557.58 142.31 L556.16 140.72 L555.97 139.93 L555.50 139.74 L555.44 139.12 L553.91 138.19 L553.66 136.87 L553.90 134.97 L554.28 134.11 L553.81 133.67 L553.23 133.46 L552.45 132.55 L551.25 132.00 L548.64 130.97 L547.03 129.97 L544.49 129.15 L542.15 127.10 L542.71 126.89 L541.45 125.73 L541.39 124.79 L539.61 124.35 L538.76 125.55 L537.94 124.62 L538.00 123.66 L538.10 123.61 L538.72 123.36 L536.50 122.95 L534.25 123.94 L534.40 125.32 L534.06 126.11 L534.97 127.52 L537.57 128.92 L538.97 131.22 L542.06 133.46 L544.24 133.44 L544.92 134.05 L544.14 134.61 L546.63 135.61 L548.66 136.45 L551.05 137.90 L551.33 138.42 L550.82 139.41 L549.27 138.12 L546.86 137.66 L545.69 139.46 L547.70 140.49 L547.37 141.94 L546.21 142.10 L544.73 144.48 L543.57 144.70 L543.58 143.85 L544.14 142.36 L544.75 141.77 L543.66 140.16 L542.82 138.75 L541.66 138.41 L540.84 137.21 L539.06 136.70 L537.86 135.59 L535.80 135.41 L533.63 134.15 L531.09 132.35 L529.20 130.75 L528.33 128.00 L526.95 127.68 L524.69 126.76 L523.41 127.14 L521.81 128.42 L520.65 128.63 L518.14 130.20 L512.66 129.45 L508.61 130.35 L508.29 132.02 L508.44 133.63 L505.81 135.48 L502.25 136.07 L502.00 137.00 L500.30 138.54 L499.23 140.81 L500.31 142.39 L498.70 143.63 L498.10 145.44 L496.00 145.99 L494.04 148.13 L490.51 148.17 L487.86 148.12 L486.12 149.10 L485.06 150.15 L483.70 149.92 L482.68 148.98 L481.89 147.38 L479.30 146.95 L478.18 147.67 L476.71 147.28 L475.28 147.59 L475.71 145.41 L475.44 143.70 L474.20 143.45 L473.54 142.40 L473.76 140.58 L474.87 139.57 L475.06 138.45 L475.64 136.78 L475.58 135.60 L475.03 134.60 L474.90 133.66 L475.04 131.69 L473.91 130.48 L477.84 128.48 L481.24 128.98 L484.97 128.96 L487.92 129.43 L490.23 129.29 L494.72 129.38 L496.15 127.71 L496.68 122.18 L493.82 119.27 L491.77 117.86 L487.52 116.79 L487.24 114.77 L490.85 114.16 L495.51 114.88 L494.63 111.73 L497.25 112.92 L503.72 110.76 L504.55 108.48 L506.98 107.92 L509.21 107.37 L510.64 106.61 L513.07 102.52 L516.87 101.36 L519.18 101.44 L519.72 100.85 L522.05 100.70 L522.56 101.31 L524.45 99.94 L523.81 98.90 L523.68 97.33 L522.56 95.78 L522.47 92.94 L522.94 92.19 L523.73 91.36 L526.18 91.19 L527.15 90.42 L529.39 89.64 L529.29 91.07 L528.47 91.97 L528.81 92.75 L530.31 93.17 L529.63 94.22 L528.81 93.92 L526.81 95.92 L527.56 97.27 L527.61 98.34 L530.42 98.99 L530.39 99.98 L533.21 99.45 L534.77 98.69 L537.91 99.79 L539.22 100.67 L541.12 99.86 L545.45 98.57 L548.95 97.63 L551.72 98.10 L551.93 98.78 L554.61 98.82 L555.25 97.59 L559.08 96.69 L558.49 94.36 L558.58 92.27 L559.95 90.52 L562.57 89.57 L564.77 91.65 L567.00 91.60 L567.54 89.46 L567.86 87.82 L566.84 88.17 L565.07 87.19 L564.83 85.59 L568.35 84.82 L571.85 84.41 L574.86 84.87 L577.73 84.79 L580.88 83.26 L577.97 81.93 L572.93 82.16 L568.05 83.17 L563.53 83.76 L561.92 82.24 L559.23 81.33 L559.85 78.60 L558.50 76.09 L559.82 74.47 L562.34 72.73 L568.70 69.72 L570.55 69.13 L570.26 67.96 L566.40 66.65 L561.62 67.43 L558.93 69.37 L559.36 71.07 L554.94 73.31 L549.58 75.70 L547.55 79.61 L549.53 81.56 L552.19 83.11 L549.64 86.24 L546.75 86.89 L545.69 91.55 L544.11 94.15 L540.74 93.89 L539.17 96.09 L535.95 96.22 L535.07 93.59 L532.74 90.44 L530.63 86.51 L528.77 84.81 L523.28 88.02 L519.58 88.67 L515.74 87.26 L514.75 84.27 L513.87 77.86 L516.42 76.07 L523.76 73.74 L529.24 70.87 L534.33 67.00 L541.00 61.64 L545.66 59.55 L553.29 56.06 L559.38 54.85 L563.95 54.99 L568.19 52.69 L573.25 52.82 L578.24 52.26 L586.93 54.29 L583.35 55.04 L586.39 56.78 L589.26 55.82 L593.82 57.50 L601.43 58.16 L611.92 61.30 L614.06 62.62 L614.24 64.47 L611.16 65.93 L606.62 66.67 L594.22 64.56 L592.18 64.91 L596.71 66.94 L597.07 71.07 L600.64 71.92 L602.81 72.64 L603.17 71.29 L601.44 70.05 L603.27 69.05 L609.98 70.78 L612.32 70.10 L610.45 68.06 L616.93 65.34 L619.49 65.50 L622.08 66.47 L623.70 64.57 L621.38 62.91 L622.74 61.25 L620.70 59.53 L628.47 60.42 L630.06 61.97 L626.54 62.32 L626.56 63.86 L628.75 64.81 L633.04 64.21 L633.72 62.44 L639.52 61.11 L649.22 58.73 L651.31 58.87 L648.57 60.55 L652.02 60.84 L654.01 59.89 L659.21 59.82 L663.34 58.66 L666.50 60.34 L669.66 58.50 L666.75 56.89 L668.19 55.97 L676.40 56.81 L680.24 57.68 L690.31 60.85 L692.17 59.40 L689.35 57.93 L689.26 57.34 L685.92 57.07 L686.83 55.75 L685.35 53.59 L685.26 52.70 L690.39 50.18 L692.21 47.66 L694.28 47.11 L701.63 47.84 L702.21 49.39 L699.58 51.64 L701.31 52.53 L702.20 54.47 L701.57 58.28 L704.63 59.98 L703.44 61.83 L698.00 65.78 L701.18 66.19 L702.28 65.19 L705.34 64.47 L706.07 63.10 L708.48 61.78 L706.86 60.20 L708.16 58.36 L705.12 58.13 L704.45 56.59 L706.67 53.80 L703.06 51.54 L708.03 49.66 L707.39 47.69 L708.77 47.62 L710.23 49.17 L709.14 51.85 L712.11 52.35 L710.84 50.35 L715.49 49.26 L721.26 49.11 L726.39 50.69 L723.92 48.38 L723.64 45.42 L728.47 44.86 L735.15 44.98 L741.17 44.62 L738.92 43.17 L742.13 41.34 L745.32 41.27 L750.72 39.89 L758.06 39.52 L758.98 38.76 L766.28 38.50 L768.55 39.12 L774.78 37.65 L779.89 37.69 L780.65 36.49 L783.31 35.31 L789.87 34.17 L794.63 35.07 L790.85 35.76 L797.14 36.18 Z M636.42 135.33 L637.83 137.30 L639.12 137.43 L639.98 138.18 L637.69 138.40 L637.21 140.56 L636.73 141.53 L635.71 142.18 L635.79 143.55 L636.67 145.60 L639.30 146.18 L641.23 147.58 L645.18 148.05 L649.52 147.32 L649.78 146.67 L649.27 144.71 L649.67 141.80 L647.50 140.86 L648.22 138.96 L646.37 138.80 L646.99 136.45 L649.61 137.14 L652.05 136.25 L650.02 134.58 L649.23 132.99 L646.99 133.70 L646.71 135.73 L645.84 133.94 L645.68 133.26 L646.37 132.10 L645.84 131.13 L642.62 130.19 L641.36 127.69 L639.83 126.99 L639.74 126.08 L642.44 126.35 L642.55 124.32 L644.91 123.87 L647.34 124.28 L647.84 121.57 L647.34 119.85 L644.56 119.99 L642.20 119.31 L638.98 120.53 L636.39 121.11 L635.13 122.76 L632.43 123.22 L629.67 126.09 L632.20 128.72 L631.92 130.59 L634.96 133.86 L636.42 135.33 Z"/>
    <path d="M239.33 34.67 L238.07 34.75 L232.86 34.57 L232.12 33.79 L237.72 33.83 L239.66 34.35 L239.33 34.67 Z"/>
    <path d="M193.93 34.17 L188.75 34.97 L184.63 34.08 L186.88 33.19 L190.93 32.91 L194.85 33.34 L193.93 34.17 Z"/>
    <path d="M568.68 33.74 L562.47 34.88 L557.57 34.23 L559.49 33.51 L557.81 32.63 L563.57 32.07 L564.67 33.11 L568.68 33.74 Z"/>
    <path d="M195.38 31.66 L192.00 32.20 L187.38 32.20 L187.43 31.80 L190.28 30.97 L191.77 31.10 L195.38 31.66 Z"/>
    <path d="M233.80 33.18 L229.69 33.75 L227.43 33.10 L226.24 32.06 L226.02 30.91 L229.62 31.02 L231.24 31.21 L234.56 32.17 L233.80 33.18 Z"/>
    <path d="M222.06 32.43 L223.14 33.59 L218.60 33.28 L214.03 32.38 L207.84 32.28 L210.53 31.45 L207.17 30.78 L206.97 29.72 L212.42 30.10 L219.93 31.11 L222.06 32.43 Z"/>
    <path d="M791.88 32.48 L776.22 33.55 L781.29 29.91 L783.57 29.59 L785.66 29.77 L792.70 31.35 L791.88 32.48 Z"/>
    <path d="M550.70 28.61 L559.84 30.68 L552.85 31.77 L551.31 33.81 L548.87 34.34 L547.55 36.64 L544.20 36.75 L538.23 35.05 L540.75 34.07 L536.58 33.26 L531.17 30.92 L529.01 28.74 L536.59 27.75 L538.11 28.72 L542.06 28.68 L543.12 27.73 L547.20 27.64 L550.70 28.61 Z"/>
    <path d="M570.69 26.65 L576.13 27.62 L572.01 29.12 L563.96 29.44 L555.76 28.98 L555.27 28.22 L551.28 28.17 L548.24 26.89 L556.82 26.12 L560.86 26.78 L563.66 25.95 L570.69 26.65 Z"/>
    <path d="M642.04 26.26 L638.32 26.62 L635.82 26.83 L635.43 27.29 L632.18 27.75 L629.17 27.09 L630.76 26.22 L624.57 26.14 L630.00 25.63 L634.22 25.60 L634.79 26.35 L636.38 25.68 L639.00 25.23 L643.12 25.83 L642.04 26.26 Z"/>
    <path d="M777.61 30.89 L771.55 31.23 L763.81 30.43 L759.20 29.37 L757.07 27.38 L753.28 26.83 L760.49 24.93 L766.50 24.30 L771.90 25.70 L778.30 28.39 L777.61 30.89 Z"/>
    <path d="M258.28 28.72 L261.63 29.62 L257.81 30.45 L252.68 32.54 L247.77 32.74 L242.01 32.38 L239.02 31.25 L239.07 30.24 L241.26 29.50 L236.18 29.52 L233.12 28.60 L231.36 27.34 L233.29 26.10 L235.21 25.26 L238.06 25.06 L236.85 24.43 L243.31 24.29 L246.85 25.77 L251.53 26.36 L256.08 26.89 L258.28 28.72 Z"/>
    <path d="M309.72 19.15 L317.15 19.37 L323.11 19.72 L328.19 20.48 L328.07 21.22 L321.29 22.42 L314.57 22.99 L312.06 23.61 L318.11 23.59 L311.56 25.28 L307.03 26.06 L302.28 28.33 L296.55 28.79 L294.78 29.36 L286.37 29.66 L290.20 30.01 L288.28 30.50 L290.57 31.87 L287.93 32.83 L283.64 33.61 L282.33 34.70 L278.45 35.53 L278.83 36.16 L283.58 36.05 L283.64 36.73 L276.22 38.39 L268.96 37.63 L260.80 38.06 L256.67 37.72 L251.41 37.58 L251.07 36.24 L256.20 35.62 L254.83 33.61 L256.53 33.42 L263.95 34.61 L260.17 32.83 L255.66 32.30 L257.91 31.23 L262.84 30.56 L263.63 29.60 L259.70 28.51 L258.52 27.08 L266.12 27.20 L268.31 27.50 L272.64 26.49 L266.39 26.17 L256.67 26.34 L251.76 25.40 L249.44 24.28 L246.20 23.46 L245.59 22.52 L249.72 21.99 L252.97 21.90 L258.42 21.45 L262.50 20.41 L265.94 20.56 L268.94 21.33 L271.06 19.83 L274.72 19.39 L279.70 19.08 L288.19 18.97 L289.67 19.27 L297.69 18.80 L303.71 18.97 L309.72 19.15 Z"/>
    <path d="M424.72 18.00 L442.10 20.20 L436.97 21.27 L426.34 21.40 L411.39 21.67 L412.79 22.16 L422.62 21.86 L430.99 22.81 L436.38 21.96 L438.69 22.96 L435.64 24.58 L442.71 23.54 L456.20 22.47 L464.53 23.00 L466.09 24.19 L454.76 26.17 L453.19 26.81 L444.32 27.29 L450.75 27.42 L447.50 29.44 L445.26 31.25 L445.35 34.34 L448.69 36.15 L444.35 36.27 L439.78 37.14 L444.91 38.62 L445.56 40.98 L442.59 41.23 L446.19 43.62 L440.02 43.82 L443.24 44.95 L442.33 45.93 L438.41 46.36 L434.54 46.37 L438.02 48.25 L438.06 49.49 L432.56 48.34 L431.13 49.08 L434.88 49.78 L438.52 51.48 L439.57 53.71 L434.62 54.25 L432.48 53.18 L429.05 51.58 L430.00 53.47 L426.77 54.93 L434.09 55.04 L437.92 55.20 L430.47 57.61 L422.92 59.80 L414.80 60.76 L411.73 60.78 L408.86 61.85 L404.99 64.78 L399.02 66.73 L397.10 66.84 L393.40 67.52 L389.41 68.17 L387.03 69.89 L386.99 71.84 L385.59 73.66 L381.06 75.88 L382.18 78.05 L380.93 80.35 L379.50 83.06 L375.59 83.23 L371.49 80.96 L365.94 80.95 L363.24 79.43 L361.39 76.71 L356.57 73.26 L355.17 71.45 L354.79 68.95 L350.94 66.39 L351.94 64.34 L350.09 63.36 L352.83 60.12 L357.01 59.08 L358.11 57.92 L358.69 55.75 L355.52 56.74 L354.01 57.15 L351.51 57.55 L348.10 56.64 L347.92 54.75 L349.00 53.27 L351.58 53.23 L357.25 53.97 L352.47 52.21 L349.99 51.26 L347.22 51.65 L344.90 50.96 L348.01 48.37 L346.32 47.34 L344.11 45.42 L340.77 42.47 L337.23 41.39 L337.26 40.23 L329.81 38.60 L323.91 38.40 L316.49 38.51 L309.71 38.72 L306.49 37.83 L301.66 36.09 L308.95 35.21 L314.54 35.07 L302.66 34.34 L296.40 33.21 L296.78 32.13 L307.30 30.79 L317.47 29.46 L318.54 28.45 L311.05 27.45 L313.47 26.34 L323.09 24.41 L327.13 24.11 L325.97 22.86 L332.55 22.13 L341.09 21.69 L349.63 21.67 L352.66 22.53 L360.03 21.00 L366.66 22.04 L370.56 22.26 L376.33 23.16 L369.72 21.67 L370.10 20.48 L379.43 18.82 L389.17 18.94 L392.72 17.92 L402.53 17.65 L424.72 18.00 Z"/>
  </g>
</svg>
